<svg width="34" height="34" viewBox="0 0 34 34" fill="none" xmlns="http://www.w3.org/2000/svg">
<path d="M7.08333 29.0419C5.7683 29.0419 4.50713 28.5195 3.57726 27.5896C2.64739 26.6597 2.125 25.3986 2.125 24.0835C2.125 22.7685 2.64739 21.5073 3.57726 20.5775C4.50713 19.6476 5.7683 19.1252 7.08333 19.1252C8.39837 19.1252 9.65954 19.6476 10.5894 20.5775C11.5193 21.5073 12.0417 22.7685 12.0417 24.0835C12.0417 25.3986 11.5193 26.6597 10.5894 27.5896C9.65954 28.5195 8.39837 29.0419 7.08333 29.0419ZM7.08333 17.0002C5.20472 17.0002 3.40304 17.7465 2.07466 19.0749C0.746278 20.4032 0 22.2049 0 24.0835C0 25.9621 0.746278 27.7638 2.07466 29.0922C3.40304 30.4206 5.20472 31.1669 7.08333 31.1669C8.96195 31.1669 10.7636 30.4206 12.092 29.0922C13.4204 27.7638 14.1667 25.9621 14.1667 24.0835C14.1667 22.2049 13.4204 20.4032 12.092 19.0749C10.7636 17.7465 8.96195 17.0002 7.08333 17.0002ZM20.9667 14.1669H26.9167V11.6169H22.3833L19.635 6.98436C19.2242 6.27603 18.4167 5.80853 17.5667 5.80853C16.9008 5.80853 16.2917 6.07769 15.8667 6.51686L10.625 11.7444C10.1858 12.1835 9.91667 12.7502 9.91667 13.4585C9.91667 14.351 10.3842 15.1019 11.1208 15.541L15.8667 18.4169V25.5002H18.4167V16.2919L15.2292 13.9544L18.5158 10.6252M26.9167 29.0419C25.6016 29.0419 24.3405 28.5195 23.4106 27.5896C22.4807 26.6597 21.9583 25.3986 21.9583 24.0835C21.9583 22.7685 22.4807 21.5073 23.4106 20.5775C24.3405 19.6476 25.6016 19.1252 26.9167 19.1252C28.2317 19.1252 29.4929 19.6476 30.4227 20.5775C31.3526 21.5073 31.875 22.7685 31.875 24.0835C31.875 25.3986 31.3526 26.6597 30.4227 27.5896C29.4929 28.5195 28.2317 29.0419 26.9167 29.0419ZM26.9167 17.0002C25.038 17.0002 23.2364 17.7465 21.908 19.0749C20.5796 20.4032 19.8333 22.2049 19.8333 24.0835C19.8333 25.9621 20.5796 27.7638 21.908 29.0922C23.2364 30.4206 25.038 31.1669 26.9167 31.1669C27.8469 31.1669 28.768 30.9836 29.6273 30.6277C30.4867 30.2717 31.2676 29.7499 31.9253 29.0922C32.5831 28.4345 33.1048 27.6536 33.4608 26.7942C33.8168 25.9348 34 25.0137 34 24.0835C34 23.1533 33.8168 22.2322 33.4608 21.3729C33.1048 20.5135 32.5831 19.7326 31.9253 19.0749C31.2676 18.4171 30.4867 17.8954 29.6273 17.5394C28.768 17.1834 27.8469 17.0002 26.9167 17.0002ZM22.6667 6.8002C24.0833 6.8002 25.2167 5.66686 25.2167 4.2502C25.2167 2.83353 24.0833 1.7002 22.6667 1.7002C21.25 1.7002 20.1167 2.83353 20.1167 4.2502C20.1167 5.66686 21.25 6.8002 22.6667 6.8002Z" fill="#2B2B2B"/>
</svg>
