<svg width="34" height="34" viewBox="0 0 34 34" fill="none" xmlns="http://www.w3.org/2000/svg">
<path d="M14.1668 14.1668C14.1668 13.8866 14.0837 13.6127 13.9281 13.3798C13.7724 13.1468 13.5512 12.9652 13.2923 12.858C13.0334 12.7508 12.7486 12.7227 12.4738 12.7774C12.199 12.832 11.9466 12.967 11.7484 13.1651C11.5503 13.3632 11.4154 13.6156 11.3607 13.8905C11.3061 14.1653 11.3341 14.4501 11.4413 14.709C11.5486 14.9678 11.7301 15.1891 11.9631 15.3447C12.1961 15.5004 12.47 15.5835 12.7502 15.5835C13.1259 15.5835 13.4862 15.4342 13.7519 15.1686C14.0176 14.9029 14.1668 14.5426 14.1668 14.1668ZM20.5418 19.9185C20.381 19.8242 20.2031 19.7627 20.0184 19.7373C19.8337 19.7119 19.6459 19.7232 19.4656 19.7706C19.2852 19.818 19.1161 19.9005 18.9677 20.0134C18.8194 20.1263 18.6947 20.2673 18.601 20.4285C18.4402 20.7113 18.2073 20.9464 17.9261 21.1099C17.645 21.2735 17.3255 21.3596 17.0002 21.3596C16.6749 21.3596 16.3554 21.2735 16.0742 21.1099C15.793 20.9464 15.5602 20.7113 15.3993 20.4285C15.3056 20.2673 15.181 20.1263 15.0326 20.0134C14.8843 19.9005 14.7151 19.818 14.5348 19.7706C14.3545 19.7232 14.1666 19.7119 13.9819 19.7373C13.7972 19.7627 13.6193 19.8242 13.4585 19.9185C13.1345 20.1054 12.8975 20.4128 12.7993 20.7738C12.7011 21.1347 12.7496 21.5199 12.9343 21.8452C13.3452 22.5603 13.9375 23.1544 14.6513 23.5676C15.3652 23.9807 16.1754 24.1982 17.0002 24.1982C17.825 24.1982 18.6351 23.9807 19.349 23.5676C20.0629 23.1544 20.6551 22.5603 21.066 21.8452C21.2507 21.5199 21.2992 21.1347 21.201 20.7738C21.1028 20.4128 20.8659 20.1054 20.5418 19.9185ZM21.2502 12.7502C20.97 12.7502 20.6961 12.8332 20.4631 12.9889C20.2301 13.1446 20.0486 13.3658 19.9413 13.6247C19.8341 13.8836 19.8061 14.1684 19.8607 14.4432C19.9154 14.718 20.0503 14.9704 20.2484 15.1686C20.4466 15.3667 20.699 15.5016 20.9738 15.5563C21.2486 15.6109 21.5334 15.5829 21.7923 15.4757C22.0512 15.3684 22.2724 15.1869 22.4281 14.9539C22.5838 14.7209 22.6668 14.447 22.6668 14.1668C22.6668 13.7911 22.5176 13.4308 22.2519 13.1651C21.9862 12.8994 21.6259 12.7502 21.2502 12.7502ZM17.0002 2.8335C14.1983 2.8335 11.4593 3.66436 9.12959 5.22101C6.79989 6.77766 4.98412 8.99019 3.91188 11.5788C2.83963 14.1674 2.55909 17.0159 3.10571 19.7639C3.65234 22.512 5.00158 25.0363 6.98282 27.0175C8.96407 28.9988 11.4883 30.348 14.2364 30.8946C16.9845 31.4412 19.8329 31.1607 22.4215 30.0885C25.0101 29.0162 27.2227 27.2004 28.7793 24.8707C30.336 22.541 31.1668 19.8021 31.1668 17.0002C31.1668 15.1398 30.8004 13.2976 30.0885 11.5788C29.3765 9.86003 28.333 8.29831 27.0175 6.98282C25.702 5.66732 24.1403 4.62381 22.4215 3.91187C20.7027 3.19993 18.8606 2.8335 17.0002 2.8335ZM17.0002 28.3335C14.3614 28.3449 11.8013 27.4351 9.76145 25.761C7.7216 24.087 6.32986 21.7536 5.82623 19.1633C5.32261 16.5729 5.73866 13.8881 7.00265 11.5716C8.26664 9.25524 10.2993 7.4525 12.7502 6.47433C12.7356 6.67712 12.7356 6.8807 12.7502 7.0835C12.7502 8.21067 13.1979 9.29167 13.995 10.0887C14.792 10.8857 15.873 11.3335 17.0002 11.3335C17.3759 11.3335 17.7362 11.1842 18.0019 10.9186C18.2676 10.6529 18.4168 10.2926 18.4168 9.91683C18.4168 9.54111 18.2676 9.18077 18.0019 8.91509C17.7362 8.64942 17.3759 8.50016 17.0002 8.50016C16.6244 8.50016 16.2641 8.35091 15.9984 8.08523C15.7328 7.81955 15.5835 7.45922 15.5835 7.0835C15.5835 6.70777 15.7328 6.34744 15.9984 6.08176C16.2641 5.81609 16.6244 5.66683 17.0002 5.66683C20.006 5.66683 22.8886 6.86087 25.014 8.98629C27.1395 11.1117 28.3335 13.9944 28.3335 17.0002C28.3335 20.0059 27.1395 22.8886 25.014 25.014C22.8886 27.1395 20.006 28.3335 17.0002 28.3335Z" fill="#2B2B2B"/>
</svg>
