<svg width="34" height="34" viewBox="0 0 34 34" fill="none" xmlns="http://www.w3.org/2000/svg">
<path d="M25.3868 18.8698C25.0327 18.8132 23.6727 18.4165 23.3185 18.2607L20.386 27.4407L16.0085 25.8398L19.1252 17.6657L14.8043 12.7498L18.4168 10.6815C19.0543 12.2823 20.0743 13.6282 21.4202 14.7332C22.766 15.8382 24.3102 16.5323 26.0385 16.8015L27.6252 11.9423L25.5852 11.2765L24.8485 13.5432C23.9135 13.1465 23.0918 12.5515 22.3835 11.7865C21.6752 11.0073 21.1652 10.1007 20.8535 9.08067L20.386 7.55067C20.216 6.984 19.8902 6.53067 19.4227 6.19067C18.9552 5.86484 18.4168 5.6665 17.8927 5.624C17.3402 5.5815 16.8018 5.6665 16.2918 5.964L11.3335 8.82567C10.8093 9.12317 10.4268 9.54817 10.186 10.0865C9.91683 10.6248 9.86016 11.1632 9.91683 11.744C9.9735 12.3248 10.2852 12.8348 10.6818 13.274L15.7393 18.5298L13.3452 24.8482L3.49933 21.3207L2.8335 23.3182L22.7235 30.5715C23.8285 30.9682 25.0043 31.1665 26.251 31.1665C27.1293 31.1665 27.9935 31.0532 28.8435 30.8407C29.6793 30.614 30.4585 30.3023 31.1668 29.9057L29.566 28.3332C28.5035 28.8007 27.3985 29.0415 26.251 29.0415C25.316 29.0415 24.381 28.8857 23.446 28.574L22.3835 28.1773L25.3868 18.8698ZM26.9168 4.24984C26.9168 5.82234 25.656 7.08317 24.0835 7.08317C22.511 7.08317 21.2502 5.82234 21.2502 4.24984C21.2502 2.67734 22.5252 1.4165 24.0835 1.4165C25.6418 1.4165 26.9168 2.6915 26.9168 4.24984Z" fill="#2B2B2B"/>
</svg>
