<svg width="34" height="34" viewBox="0 0 34 34" fill="none" xmlns="http://www.w3.org/2000/svg">
<path d="M30.9824 28.8573C30.8265 28.6165 30.6282 28.4607 30.359 28.4182C30.201 28.3736 30.0345 28.3683 29.874 28.4029C29.7135 28.4375 29.5639 28.5108 29.4382 28.6165C28.9424 29.0415 28.3899 29.3673 27.7382 29.5515C27.1007 29.7498 26.4349 29.7498 25.7265 29.6082L24.1399 29.2115L22.6665 20.4848L18.0482 16.7023L20.5415 12.6648C21.3632 13.954 22.454 14.9882 23.8424 15.7815C25.2307 16.5748 26.7465 16.9998 28.3757 16.9998V14.124C27.044 14.124 25.8682 13.7698 24.834 13.0615C23.7999 12.3532 23.0349 11.4323 22.5532 10.2848L21.7599 8.57067C21.6182 8.3015 21.3632 7.98984 20.9949 7.63567C20.6124 7.2815 20.1024 7.08317 19.4365 7.08317H11.4324L7.84821 12.7498L10.299 14.2515L12.9482 9.9165H16.2915L12.7499 15.5123C12.3107 16.1782 12.1832 16.9007 12.3532 17.7082L13.5432 22.5957L8.58487 25.9107L7.91904 25.769C7.26545 25.6463 6.65229 25.364 6.13404 24.9473C5.60987 24.5223 5.21321 24.0265 4.95821 23.4598C4.81654 23.1057 4.57571 22.9073 4.24987 22.8648C3.90987 22.7798 3.62654 22.8223 3.38571 22.9923C3.14487 23.1623 3.00321 23.3748 2.96071 23.6582C2.91821 23.8707 2.93237 24.0832 3.01737 24.324C3.42821 25.2023 4.00904 25.9673 4.77404 26.6048C5.55321 27.2423 6.44571 27.6248 7.46571 27.8232L25.3299 31.6623C26.3499 31.8748 27.3274 31.8748 28.2765 31.5915C29.2257 31.3365 30.0757 30.869 30.8265 30.2032C30.9965 30.0757 31.1099 29.9057 31.1665 29.679C31.1665 29.3673 31.1665 29.0982 30.9824 28.8573ZM12.424 26.7607L16.7307 23.9273L16.0649 19.224L20.1024 22.0715L21.1649 28.6165L12.424 26.7607ZM25.4999 4.24984C25.4999 5.82234 24.239 7.08317 22.6665 7.08317C21.094 7.08317 19.8332 5.82234 19.8332 4.24984C19.8332 2.67734 21.1082 1.4165 22.6665 1.4165C24.2249 1.4165 25.4999 2.6915 25.4999 4.24984Z" fill="#2B2B2B"/>
</svg>
