<?xml version="1.0" encoding="UTF-8" standalone="no"?><!DOCTYPE svg PUBLIC "-//W3C//DTD SVG 1.1//EN" "http://www.w3.org/Graphics/SVG/1.1/DTD/svg11.dtd"><svg width="100%" height="100%" viewBox="0 0 209 99" version="1.1" xmlns="http://www.w3.org/2000/svg" xmlns:xlink="http://www.w3.org/1999/xlink" xml:space="preserve" xmlns:serif="http://www.serif.com/" style="fill-rule:evenodd;clip-rule:evenodd;stroke-linejoin:round;stroke-miterlimit:2;"><path d="M13.685,14.334c-8.487,8.775 -13.684,20.891 -13.684,34.134c0,13.247 5.197,25.359 13.688,34.138c8.347,8.675 20.056,14.178 32.956,14.322l0.006,0.003l0.553,-0c13.091,-0.003 24.981,-5.544 33.45,-14.328c8.478,-8.775 13.684,-20.887 13.684,-34.134l0,-13.397c0.013,-7.666 6.162,-13.781 13.653,-13.8c7.481,0.022 13.631,6.134 13.644,13.8l0,28.525c-0,19.322 15.578,35.053 34.916,35.066l3.144,0.003l-0,-21.263l-3.137,-0.006c-7.488,-0.019 -13.472,-6.134 -13.484,-13.803l0,-28.522c0.009,-7.666 6.159,-13.781 13.656,-13.8c7.478,0.019 13.622,6.134 13.637,13.8l0,28.525c-0,19.325 15.584,35.053 34.913,35.066l3.15,0.003l-0,-21.263l-3.141,-0.006c-7.484,-0.019 -13.637,-6.134 -13.65,-13.803l0,-28.522c-0,-19.328 -15.584,-35.05 -34.912,-35.069c-9.503,0.009 -18.088,3.822 -24.375,9.975c-6.284,-6.153 -14.869,-9.966 -24.369,-9.975c-17.85,0.019 -32.775,13.422 -34.919,30.691l0,17.775c-0,7.653 -2.969,14.444 -7.709,19.363c-4.778,4.909 -11.106,7.819 -18.191,7.831c-7.075,-0.012 -13.403,-2.922 -18.181,-7.834c-4.734,-4.916 -7.703,-11.706 -7.709,-19.363c0.006,-7.653 2.975,-14.434 7.716,-19.356c4.772,-4.916 11.1,-7.819 18.184,-7.838c4.881,0.009 9.363,1.394 13.275,3.847l3.659,2.309l1.066,-4.188c1.184,-4.634 3.106,-9 5.609,-12.941l1.794,-2.812l-2.913,-1.622c-6.644,-3.709 -14.294,-5.844 -22.384,-5.863c-0.041,-0.003 -0.081,-0.003 -0.125,-0.003c-13.1,-0 -25.003,5.541 -33.469,14.334Z" style="fill:url(#_Linear1);fill-rule:nonzero;"/><path d="M62.653,82.076l-0.55,0l-0.009,-0.003c-11.375,-0.125 -21.822,-4.434 -29.856,-11.397c-0.044,-0.038 -0.091,-0.075 -0.131,-0.113c-1.1,-0.828 -2.147,-1.741 -3.125,-2.75c-1,-1.037 -1.916,-2.162 -2.747,-3.363c-0.028,-0.034 -0.056,-0.075 -0.087,-0.109c-3.05,-4.447 -4.869,-9.894 -4.875,-15.875c0.006,-7.653 2.975,-14.438 7.719,-19.359c4.769,-4.912 11.097,-7.819 18.181,-7.834c4.881,0.009 9.366,1.391 13.275,3.847l3.659,2.309l1.066,-4.188c1.184,-4.638 3.106,-9 5.612,-12.941l1.791,-2.813l-2.912,-1.625c-6.644,-3.706 -14.294,-5.844 -22.384,-5.859c-0.041,-0.003 -0.081,-0.003 -0.125,-0.003c-8.628,0 -16.728,2.416 -23.678,6.566c0.006,-0.006 0.009,-0.013 0.016,-0.022c-0.184,0.109 -0.366,0.228 -0.547,0.338c-0.2,0.128 -0.403,0.25 -0.6,0.375c-0.541,0.344 -1.078,0.697 -1.606,1.062c-0.109,0.078 -0.219,0.159 -0.331,0.238c-0.491,0.347 -0.975,0.703 -1.453,1.072c-0.087,0.066 -0.175,0.131 -0.259,0.197c-1.775,1.381 -3.456,2.878 -5.009,4.494c-8.487,8.775 -13.684,20.894 -13.684,34.137l0,0.006c0.003,13.241 5.2,25.35 13.687,34.131c8.347,8.669 20.059,14.175 32.956,14.319l0.006,0.003l0.553,0c13.091,-0.003 24.981,-5.544 33.447,-14.325c2.094,-2.166 3.984,-4.537 5.65,-7.078c-6.941,4.15 -15.031,6.559 -23.647,6.563" style="fill:#505050;fill-rule:nonzero;"/><path d="M132.453,9.881c6.506,6.328 10.569,15.166 10.631,24.95c0.134,-7.55 6.228,-13.55 13.644,-13.563c7.478,0.013 13.622,6.131 13.637,13.803l0,28.522c0,19.325 15.584,35.053 34.913,35.066l3.15,0.003l0,-21.266l-3.141,-0.003c-7.484,-0.019 -13.638,-6.134 -13.65,-13.803l0,-28.525c0,-19.325 -15.584,-35.05 -34.912,-35.066c-9.453,0.003 -17.994,3.784 -24.272,9.881Z" style="fill:url(#_Linear2);fill-rule:nonzero;"/><defs><linearGradient id="_Linear1" x1="0" y1="0" x2="1" y2="0" gradientUnits="userSpaceOnUse" gradientTransform="matrix(32.590962,-53.29985,53.29985,32.590962,81.895813,103.079729)"><stop offset="0" style="stop-color:#0f0f0f;stop-opacity:1"/><stop offset="1" style="stop-color:#525150;stop-opacity:1"/></linearGradient><linearGradient id="_Linear2" x1="0" y1="0" x2="1" y2="0" gradientUnits="userSpaceOnUse" gradientTransform="matrix(75.975001,0,0,75.975001,132.452807,49.332338)"><stop offset="0" style="stop-color:#242221;stop-opacity:1"/><stop offset="0.15" style="stop-color:#3a3938;stop-opacity:1"/><stop offset="0.33" style="stop-color:#4c4b4a;stop-opacity:1"/><stop offset="1" style="stop-color:#525150;stop-opacity:1"/></linearGradient></defs></svg>