<?xml version="1.0" encoding="UTF-8" standalone="no"?><!DOCTYPE svg PUBLIC "-//W3C//DTD SVG 1.1//EN" "http://www.w3.org/Graphics/SVG/1.1/DTD/svg11.dtd"><svg width="100%" height="100%" viewBox="0 0 744 229" version="1.1" xmlns="http://www.w3.org/2000/svg" xmlns:xlink="http://www.w3.org/1999/xlink" xml:space="preserve" xmlns:serif="http://www.serif.com/" style="fill-rule:evenodd;clip-rule:evenodd;stroke-linejoin:round;stroke-miterlimit:2;"><path d="M262.577,154.123l119.162,-0l0,-20.41l-93.206,0l0,-48.215l89.341,-0l-0,-20.197l-89.341,-0l0,-43.388l93.206,0l0,-20.412l-119.162,-0l-0,152.622Z" style="fill:#1a171b;fill-rule:nonzero;"/><path d="M548.589,74.303c-5.378,-3.609 -13.762,-5.956 -25.603,-7.159c-3.975,-0.441 -12.556,-0.903 -26.241,-1.413c-24.528,-0.868 -32.809,-2.087 -35.456,-2.959c-7.028,-2.272 -10.447,-8.872 -10.447,-20.184c0,-9.422 2.513,-15.525 7.481,-18.147c3.447,-1.841 12.866,-4.032 38.185,-4.032c11.381,0 19.644,0.554 24.55,1.644c5.434,1.206 8.922,3.828 10.659,7.994c0.778,1.894 1.7,5.903 1.7,14.256l0,3.128l25.953,0l0,-3.128c0,-6.753 -0.356,-11.859 -1.087,-15.606c-2.553,-13.15 -11.019,-21.76 -25.175,-25.588c-7.81,-2.09 -20.878,-3.109 -39.95,-3.109c-26.778,0 -44.344,2.916 -53.7,8.913c-9.669,6.2 -14.572,18.25 -14.572,35.821c-0,18.688 7.416,31.172 22.044,37.107c5.765,2.325 13.315,3.843 22.55,4.512l22.256,0.856c25.784,1.138 33.897,2.338 36.159,3.144c5.885,2.1 8.741,7.941 8.741,17.86c-0,10.046 -0.931,14.475 -1.706,16.418c-1.841,4.594 -5.947,7.513 -12.572,8.938c-4.988,1.09 -14.9,1.644 -29.456,1.644c-18.254,-0 -23.457,-0.163 -24.563,-0.294c-8.647,-1.147 -14.003,-4.178 -16.375,-9.266c-0.987,-2.115 -2.184,-6.662 -2.284,-16.262l-0,-6.775l-26.022,-0l0.072,3.2c0.175,7.718 0.528,13.247 1.065,16.909c2.422,16.088 11.603,26.291 27.294,30.334c6.753,1.725 18.966,2.566 37.334,2.566c16.216,0 26.891,-0.287 32.663,-0.878c14.212,-1.594 24.184,-5.228 30.503,-11.122c6.731,-6.325 10,-17.416 10,-33.912c0,-17.335 -4.716,-29.25 -14,-35.41" style="fill:#1a171b;fill-rule:nonzero;"/><path d="M727.769,74.303c-5.382,-3.609 -13.763,-5.956 -25.603,-7.159c-3.975,-0.441 -12.557,-0.903 -26.244,-1.413c-24.528,-0.868 -32.81,-2.087 -35.456,-2.959c-7.029,-2.272 -10.447,-8.872 -10.447,-20.184c-0,-9.422 2.512,-15.525 7.484,-18.147c3.447,-1.841 12.863,-4.032 38.181,-4.032c11.385,0 19.644,0.554 24.553,1.644c5.432,1.206 8.922,3.828 10.66,7.994c0.775,1.894 1.697,5.903 1.697,14.256l-0,3.128l25.956,0l-0,-3.128c-0,-6.753 -0.359,-11.859 -1.088,-15.606c-2.556,-13.15 -11.021,-21.76 -25.178,-25.588c-7.809,-2.09 -20.878,-3.109 -39.947,-3.109c-26.781,0 -44.343,2.916 -53.7,8.913c-9.671,6.2 -14.571,18.25 -14.571,35.821c-0,18.688 7.415,31.172 22.04,37.107c5.766,2.325 13.316,3.843 22.55,4.512l22.256,0.856c25.785,1.138 33.897,2.338 36.163,3.144c5.881,2.1 8.738,7.941 8.738,17.86c-0,10.046 -0.932,14.475 -1.707,16.418c-1.837,4.594 -5.943,7.513 -12.572,8.938c-4.984,1.09 -14.896,1.644 -29.453,1.644c-18.256,-0 -23.459,-0.163 -24.565,-0.294c-8.647,-1.147 -14.003,-4.178 -16.372,-9.266c-0.988,-2.115 -2.185,-6.662 -2.285,-16.262l0,-6.775l-26.025,-0l0.072,3.2c0.178,7.718 0.525,13.247 1.066,16.909c2.425,16.088 11.603,26.291 27.294,30.334c6.756,1.725 18.968,2.566 37.337,2.566c16.216,0 26.891,-0.287 32.659,-0.878c14.213,-1.594 24.185,-5.228 30.504,-11.122c6.731,-6.325 10.003,-17.416 10.003,-33.912c-0,-17.335 -4.719,-29.25 -14,-35.41" style="fill:#1a171b;fill-rule:nonzero;"/><path d="M289.721,212.682l4.375,-0l-0,2.112c0.019,2.894 -0.203,5.122 -0.666,6.675c-0.697,2.353 -2.009,3.944 -3.94,4.785c-1.525,0.693 -3.766,1.081 -6.719,1.168l-5.909,0c-3.379,0 -5.966,-0.303 -7.763,-0.912c-3.9,-1.316 -6.094,-5.016 -6.575,-11.097c-0.231,-2.931 -0.35,-6.191 -0.35,-9.787c0,-6.8 0.128,-11.047 0.378,-12.741c0.753,-5.059 3.872,-7.988 9.356,-8.781c1.816,-0.25 4.769,-0.378 8.863,-0.378c4.191,-0 7.128,0.5 8.806,1.506c2.163,1.297 3.406,3.584 3.735,6.869c0.118,1.237 0.215,2.95 0.29,5.15l-4.431,-0c-0,-0.675 -0.009,-1.113 -0.028,-1.319c-0.041,-3.556 -0.656,-5.825 -1.853,-6.81c-1.007,-0.837 -3.238,-1.256 -6.691,-1.256c-3.709,0 -5.987,0.053 -6.837,0.156c-3.091,0.357 -5.016,1.285 -5.779,2.782c-0.765,1.493 -1.143,4.125 -1.143,7.893c-0,10.344 0.25,16.775 0.753,19.294c0.5,2.522 1.812,4.131 3.94,4.819c1,0.312 3.157,0.469 6.457,0.469c5.756,-0 9.203,-0.585 10.34,-1.763c0.928,-0.962 1.391,-3.059 1.391,-6.287l-0,-2.547Z" style="fill:#1a171b;fill-rule:nonzero;"/><path d="M280.771,184.571c-4.025,0 -6.969,0.125 -8.747,0.369c-5.11,0.744 -7.938,3.381 -8.635,8.069c-0.243,1.647 -0.368,5.89 -0.368,12.615c-0,3.55 0.118,6.819 0.346,9.722c0.457,5.763 2.419,9.153 6,10.363c1.694,0.575 4.216,0.865 7.494,0.865l5.91,0c2.809,-0.081 4.959,-0.45 6.365,-1.093c1.722,-0.744 2.856,-2.135 3.481,-4.254c0.438,-1.468 0.65,-3.631 0.632,-6.431l-0,-1.269l-2.682,0l0,1.704c0,3.487 -0.531,5.734 -1.625,6.871c-0.843,0.869 -2.893,2.025 -10.953,2.025c-3.418,0 -5.615,-0.168 -6.709,-0.509c-2.438,-0.791 -3.953,-2.625 -4.519,-5.462c-0.519,-2.597 -0.769,-8.963 -0.769,-19.46c0,-3.94 0.404,-6.65 1.238,-8.278c0.906,-1.781 3.009,-2.841 6.434,-3.237c0.894,-0.11 3.163,-0.163 6.935,-0.163c3.69,0 6.056,0.475 7.231,1.453c1.409,1.16 2.116,3.597 2.159,7.45c0.01,0.081 0.016,0.247 0.022,0.481l2.713,0c-0.072,-1.8 -0.157,-3.187 -0.253,-4.221c-0.304,-3.025 -1.391,-5.063 -3.329,-6.222c-1.537,-0.922 -4.353,-1.388 -8.371,-1.388m-3.91,43.697c-3.512,0 -6.14,-0.312 -8.034,-0.956c-4.235,-1.428 -6.638,-5.413 -7.147,-11.831c-0.234,-2.947 -0.35,-6.263 -0.35,-9.857c-0,-6.903 0.125,-11.112 0.384,-12.862c0.813,-5.45 4.2,-8.644 10.072,-9.497c1.86,-0.256 4.881,-0.388 8.985,-0.388c4.39,0 7.412,0.535 9.24,1.629c2.394,1.434 3.788,3.962 4.144,7.509c0.119,1.234 0.212,2.937 0.294,5.203l0.031,0.878l-6.156,0l-0,-0.847c-0,-0.637 -0.007,-1.05 -0.022,-1.247c-0.05,-4.143 -0.872,-5.668 -1.55,-6.228c-0.588,-0.484 -2.125,-1.062 -6.153,-1.062c-4.547,-0 -6.172,0.081 -6.738,0.15c-2.781,0.322 -4.503,1.106 -5.125,2.325c-0.697,1.365 -1.05,3.894 -1.05,7.509c0,10.241 0.247,16.675 0.735,19.128c0.443,2.222 1.546,3.588 3.371,4.178c0.622,0.197 2.21,0.432 6.197,0.432c7.2,-0 9.188,-0.944 9.735,-1.507c0.522,-0.546 1.15,-1.978 1.15,-5.696l-0,-3.397l6.068,-0l0,2.959c0.019,2.959 -0.215,5.288 -0.7,6.916c-0.768,2.59 -2.253,4.381 -4.415,5.322c-1.625,0.74 -3.928,1.146 -7.031,1.237l-5.935,0Z" style="fill:#1a171b;fill-rule:nonzero;"/><path d="M303.567,205.562l12.903,-0c3.025,-0 5.147,-0.453 6.362,-1.347c1.522,-1.109 2.285,-3.2 2.285,-6.278c-0,-3.891 -0.356,-6.388 -1.069,-7.5c-0.928,-1.419 -2.944,-2.131 -6.047,-2.131l-14.434,-0l-0,17.256Zm-4.431,21.422l-0,-42.819l18.828,0c4.209,0 7.193,0.922 8.947,2.759c1.759,1.844 2.64,5.022 2.64,9.538c0,3.537 -0.359,6.044 -1.072,7.531c-0.968,1.966 -2.887,3.2 -5.765,3.7l-0,0.097c4.187,0.375 6.287,3.138 6.287,8.281l0,10.913l-4.434,-0l-0,-9.816c-0,-1.965 -0.234,-3.44 -0.694,-4.419c-0.678,-1.425 -1.784,-2.343 -3.331,-2.765c-0.775,-0.185 -1.931,-0.278 -3.475,-0.278l-13.5,-0l-0,17.278l-4.431,-0Z" style="fill:#1a171b;fill-rule:nonzero;"/><path d="M304.413,204.715l12.057,0c2.822,0 4.793,-0.4 5.859,-1.181c1.291,-0.941 1.941,-2.822 1.941,-5.597c-0,-4.615 -0.507,-6.378 -0.935,-7.044c-0.753,-1.153 -2.55,-1.74 -5.334,-1.74l-13.588,-0l0,15.562Zm12.057,1.694l-13.75,0l-0,-18.95l15.281,0c3.441,0 5.65,0.825 6.756,2.516c0.822,1.284 1.206,3.812 1.206,7.962c0,3.347 -0.887,5.691 -2.634,6.963c-1.378,1.015 -3.625,1.509 -6.859,1.509m8.943,19.728l2.741,0l0,-10.065c0,-4.738 -1.753,-7.1 -5.516,-7.438l-0.771,-0.069l-0,-1.487l0.7,-0.219c2.618,-0.456 4.303,-1.516 5.153,-3.237c0.65,-1.363 0.984,-3.772 0.984,-7.16c0,-4.269 -0.809,-7.281 -2.403,-8.953c-1.584,-1.656 -4.388,-2.497 -8.338,-2.497l-17.981,0l0,41.125l2.738,0l-0,-17.278l14.347,0c1.615,0 2.818,0.097 3.668,0.3c1.816,0.497 3.119,1.578 3.9,3.225c0.525,1.113 0.778,2.675 0.778,4.781l0,8.972Zm4.435,1.694l-6.125,-0l-0,-10.666c-0,-1.825 -0.21,-3.19 -0.616,-4.056c-0.569,-1.197 -1.481,-1.953 -2.79,-2.309c-0.685,-0.163 -1.788,-0.25 -3.25,-0.25l-12.654,-0l0,17.281l-6.125,-0l0,-44.513l19.675,0c4.432,0 7.647,1.016 9.563,3.022c1.931,2.025 2.872,5.338 2.872,10.122c-0,3.697 -0.378,6.278 -1.156,7.897c-0.729,1.478 -1.922,2.591 -3.566,3.334c2.259,1.063 4.172,3.425 4.172,8.379l-0,11.759Z" style="fill:#1a171b;fill-rule:nonzero;"/><path d="M359.093,214.059l-8.765,-25.944l-8.678,25.944l17.443,0Zm1.3,3.859l-19.987,0l-3.069,9.066l-4.719,0l14.482,-42.819l6.259,0l14.769,42.819l-4.669,0l-3.066,-9.066Z" style="fill:#1a171b;fill-rule:nonzero;"/><path d="M342.824,213.213l15.09,-0l-7.581,-22.441l-7.509,22.441Zm17.45,1.693l-19.8,0l9.85,-29.447l9.95,29.447Zm3.794,11.232l2.875,-0l-14.188,-41.125l-5.047,-0l-13.909,41.125l2.931,-0l3.069,-9.066l21.203,-0l3.066,9.066Zm5.246,1.69l-6.462,0l-3.066,-9.065l-18.775,-0l-3.065,9.065l-6.507,0l15.054,-44.509l7.468,-0l15.353,44.509Z" style="fill:#1a171b;fill-rule:nonzero;"/><path d="M405.962,184.165l0,42.818l-7.303,0l-21.984,-38.709l-0.119,0l0.056,3.231l0,35.478l-4.428,0l0,-42.818l7.291,-0l22.009,38.922l0.047,0.009l-0,-38.931l4.431,-0Z" style="fill:#1a171b;fill-rule:nonzero;"/><path d="M399.151,226.137l5.966,-0l-0,-41.125l-2.741,-0l0,39.128l-1.394,-0.297l-0.237,-0.341l-21.766,-38.49l-5.95,-0l0,41.125l2.738,-0l-0.072,-38.71l1.353,0l0.36,0.429l21.743,38.281Zm7.656,1.694l-8.64,-0l-20.71,-36.46l0.004,0.119l-0,36.341l-6.125,-0l-0,-44.513l8.631,0l20.715,36.631l0,-36.631l6.125,0l0,44.513Z" style="fill:#1a171b;fill-rule:nonzero;"/><path d="M440.604,195.773l-4.434,0c0,-2.091 -0.144,-3.597 -0.431,-4.519c-0.485,-1.506 -1.45,-2.465 -2.9,-2.887c-1.16,-0.335 -3.05,-0.503 -5.675,-0.503c-4.71,-0 -7.685,0.431 -8.922,1.29c-1.372,0.938 -2.053,2.978 -2.053,6.119c-0,3.716 0.944,5.981 2.837,6.778c0.925,0.394 3.65,0.697 8.166,0.906c3.031,0.147 4.984,0.282 5.853,0.41c2.528,0.334 4.347,0.984 5.447,1.944c1.887,1.628 2.834,4.831 2.834,9.6c0,4.512 -0.675,7.596 -2.025,9.246c-1.293,1.566 -3.447,2.575 -6.462,3.016c-1.256,0.163 -3.678,0.247 -7.272,0.247c-4.034,-0 -6.775,-0.241 -8.222,-0.722c-3.244,-1.087 -5.112,-3.794 -5.619,-8.122c-0.115,-1.022 -0.193,-2.634 -0.231,-4.828l4.431,0l0,1.069c0.016,2.4 0.213,4.115 0.582,5.14c0.634,1.779 2.043,2.851 4.228,3.232c0.403,0.059 2.278,0.09 5.615,0.09c3.341,0 5.6,-0.162 6.778,-0.5c1.722,-0.478 2.829,-1.54 3.332,-3.168c0.29,-0.941 0.434,-2.65 0.434,-5.144c0,-3.3 -0.809,-5.328 -2.431,-6.084c-0.813,-0.375 -3.591,-0.697 -8.341,-0.972c-1.662,-0.082 -3.331,-0.166 -5.015,-0.25c-1.985,-0.188 -3.601,-0.607 -4.832,-1.257c-3.012,-1.59 -4.522,-4.925 -4.522,-10.006c0,-4.831 0.985,-8.069 2.957,-9.706c1.968,-1.647 5.865,-2.466 11.703,-2.466c4.187,0 7.122,0.291 8.803,0.878c2.916,1.025 4.634,3.285 5.153,6.779c0.159,1.021 0.234,2.487 0.234,4.39" style="fill:#1a171b;fill-rule:nonzero;"/><path d="M412.358,214.595c0.044,1.74 0.113,3.043 0.21,3.884c0.465,4.009 2.119,6.438 5.047,7.419c1.359,0.45 4.034,0.678 7.953,0.678c3.519,-0 5.925,-0.081 7.159,-0.244c2.772,-0.403 4.769,-1.319 5.919,-2.715c1.216,-1.482 1.831,-4.41 1.831,-8.707c0,-4.49 -0.853,-7.503 -2.54,-8.959c-0.972,-0.85 -2.654,-1.434 -5.004,-1.744c-0.831,-0.122 -2.718,-0.256 -5.781,-0.406c-6.209,-0.284 -7.8,-0.691 -8.459,-0.972c-2.222,-0.931 -3.35,-3.478 -3.35,-7.556c-0,-3.472 0.79,-5.7 2.419,-6.819c1.412,-0.978 4.4,-1.434 9.403,-1.434c2.725,-0 4.659,0.175 5.909,0.534c1.728,0.5 2.897,1.659 3.469,3.441c0.278,0.887 0.428,2.175 0.465,3.931l2.744,-0c-0.019,-1.453 -0.094,-2.6 -0.219,-3.416c-0.471,-3.19 -1.978,-5.187 -4.596,-6.106c-1.582,-0.553 -4.447,-0.831 -8.522,-0.831c-5.607,-0 -9.36,0.762 -11.163,2.269c-1.759,1.462 -2.65,4.512 -2.65,9.056c0,4.784 1.331,7.815 4.069,9.259c1.125,0.591 2.647,0.985 4.516,1.16l4.978,0.25c6.472,0.375 8.025,0.756 8.656,1.05c1.937,0.903 2.919,3.206 2.919,6.85c-0,2.606 -0.153,4.371 -0.472,5.396c-0.591,1.919 -1.906,3.172 -3.91,3.732c-1.25,0.356 -3.543,0.531 -7.006,0.531c-5.069,-0 -5.559,-0.075 -5.744,-0.103c-2.512,-0.435 -4.156,-1.703 -4.9,-3.778c-0.406,-1.138 -0.612,-2.91 -0.628,-5.422l0,-0.228l-2.722,-0Zm13.21,13.672c-4.156,-0 -6.935,-0.247 -8.491,-0.763c-3.565,-1.197 -5.647,-4.169 -6.19,-8.831c-0.119,-1.041 -0.197,-2.647 -0.241,-4.91l-0.013,-0.862l6.141,-0l0,1.916c0.019,2.84 0.297,4.209 0.528,4.856c0.531,1.478 1.7,2.356 3.578,2.681c0.147,0.022 1.01,0.081 5.472,0.081c3.256,0 5.46,-0.159 6.544,-0.468c1.437,-0.404 2.337,-1.254 2.756,-2.604c0.263,-0.85 0.397,-2.496 0.397,-4.896c0,-2.929 -0.653,-4.716 -1.944,-5.316c-0.393,-0.184 -1.962,-0.544 -8.031,-0.894l-5.009,-0.253c-2.132,-0.2 -3.86,-0.653 -5.185,-1.35c-3.3,-1.741 -4.972,-5.359 -4.972,-10.756c0,-5.144 1.066,-8.531 3.26,-10.356c2.144,-1.791 6.15,-2.663 12.247,-2.663c4.325,0 7.293,0.303 9.081,0.925c3.225,1.134 5.147,3.644 5.712,7.453c0.163,1.063 0.244,2.541 0.244,4.516l0,0.847l-6.128,-0l0,-0.847c0,-1.994 -0.131,-3.428 -0.394,-4.266c-0.393,-1.225 -1.156,-1.987 -2.328,-2.325c-1.078,-0.312 -2.909,-0.472 -5.437,-0.472c-5.622,0 -7.694,0.619 -8.441,1.138c-1.122,0.769 -1.687,2.594 -1.687,5.425c-0,3.334 0.778,5.35 2.315,5.997c0.472,0.203 2.116,0.575 7.881,0.84c3.166,0.157 5.05,0.288 5.935,0.422c2.709,0.356 4.637,1.056 5.881,2.141c2.1,1.812 3.122,5.162 3.122,10.237c-0,4.766 -0.725,7.966 -2.216,9.785c-1.431,1.731 -3.784,2.847 -6.993,3.315c-1.322,0.172 -3.804,0.257 -7.394,0.257" style="fill:#1a171b;fill-rule:nonzero;"/><rect x="453.203" y="208.951" width="14.637" height="4.434" style="fill:#1a171b;"/><path d="M453.963,212.538l13.032,-0l-0,-2.741l-12.966,0l-0.066,2.741Zm14.725,1.694l-16.456,-0l0.144,-6.129l16.312,0l0,6.129Z" style="fill:#1a171b;fill-rule:nonzero;"/><path d="M523.595,184.165l-0,42.818l-4.428,0l-0,-39.396c-0.425,1.212 -0.929,2.537 -1.51,3.984l-13.5,35.412l-4.456,0l-14.663,-37.987c-0.078,-0.209 -0.187,-0.531 -0.346,-0.975l-0.113,-0l0.056,2.356l0,36.606l-4.434,0l-0,-42.818l7.747,-0l13.859,36.64l0.103,-0.009l0.819,-2.225l13.125,-34.406l7.741,-0Z" style="fill:#1a171b;fill-rule:nonzero;"/><path d="M500.282,226.137l3.294,-0l13.29,-34.869c0.582,-1.447 1.082,-2.759 1.5,-3.959l0.8,-2.297l-2.728,-0l-13.919,36.584l-1.175,0.094l-0.328,-0.588l-13.653,-36.09l-6.315,-0l-0,41.125l2.743,-0l-0.078,-38.963l1.466,0l0.453,0.969l0.197,0.556l14.453,37.438Zm19.731,-0l2.738,-0l-0,-41.125l-2.738,-0l0,41.125Zm4.428,1.694l-6.122,-0l0,-35.625l-13.578,35.625l-5.619,-0l-13.64,-35.335l-0,35.335l-6.125,-0l-0,-44.513l9.178,0l13.312,35.197l0.085,-0.234l13.337,-34.963l4.488,0l0.256,-0.728l0,0.728l4.428,0l0,44.513Z" style="fill:#1a171b;fill-rule:nonzero;"/><path d="M545.504,187.865c-4.54,0 -7.481,0.307 -8.812,0.91c-1.938,0.881 -3.088,3.306 -3.45,7.278c-0.081,1.05 -0.116,4.228 -0.116,9.537c0,5.316 0.044,8.482 0.138,9.507c0.193,2.109 0.543,3.703 1.047,4.765c0.696,1.51 1.831,2.469 3.418,2.881c1.353,0.36 3.925,0.538 7.735,0.538c3.012,-0 4.865,-0.041 5.559,-0.125c2.45,-0.269 4.141,-0.969 5.069,-2.1c1.275,-1.591 1.903,-4.463 1.881,-8.625l0,-13.928c-0.072,-2.972 -0.444,-5.291 -1.103,-6.963c-0.734,-1.884 -2.394,-3.043 -4.984,-3.484c-0.794,-0.128 -2.916,-0.191 -6.382,-0.191m0.044,-4.14c5.156,-0 8.738,0.462 10.747,1.381c3.244,1.484 5.184,4.894 5.825,10.228c0.172,1.441 0.262,4.234 0.262,8.378c0,6.463 -0.112,10.56 -0.324,12.294c-0.363,3.009 -0.994,5.231 -1.879,6.681c-1.681,2.738 -4.534,4.256 -8.547,4.547c-1.778,0.122 -3.831,0.188 -6.168,0.188c-5.369,-0 -9.069,-0.525 -11.11,-1.569c-2.037,-1.044 -3.49,-2.778 -4.356,-5.206c-0.622,-1.713 -1.015,-4.097 -1.194,-7.147c-0.075,-1.363 -0.112,-4.972 -0.112,-10.825c-0,-3.45 0.084,-5.9 0.262,-7.341c0.385,-3.262 1.194,-5.744 2.432,-7.434c1.662,-2.3 4.228,-3.61 7.703,-3.925c1.797,-0.166 3.95,-0.25 6.459,-0.25" style="fill:#1a171b;fill-rule:nonzero;"/><path d="M545.504,188.712c-5.468,-0 -7.622,0.453 -8.465,0.834c-1.628,0.741 -2.622,2.956 -2.953,6.587c-0.075,0.979 -0.113,4.075 -0.113,9.457c0,5.384 0.044,8.468 0.135,9.428c0.184,2.006 0.509,3.515 0.968,4.481c0.594,1.288 1.532,2.078 2.869,2.428c1.275,0.338 3.806,0.506 7.519,0.506c2.981,0 4.815,-0.04 5.456,-0.118c2.222,-0.244 3.738,-0.847 4.519,-1.797c1.137,-1.422 1.709,-4.144 1.687,-8.081l0,-13.932c-0.068,-2.828 -0.418,-5.075 -1.04,-6.656c-0.629,-1.603 -2.047,-2.569 -4.344,-2.959c-0.728,-0.119 -2.831,-0.178 -6.238,-0.178m-0.04,35.415c-3.913,0 -6.516,-0.184 -7.95,-0.565c-1.828,-0.475 -3.166,-1.604 -3.972,-3.344c-0.547,-1.156 -0.916,-2.81 -1.122,-5.044c-0.094,-1.025 -0.141,-4.072 -0.141,-9.584c0,-5.5 0.038,-8.55 0.116,-9.6c0.4,-4.35 1.691,-6.96 3.947,-7.985c1.466,-0.662 4.466,-0.987 9.162,-0.987c3.594,-0 5.666,0.065 6.516,0.2c2.897,0.494 4.791,1.844 5.641,4.015c0.69,1.76 1.084,4.2 1.159,7.25l0,13.947c0.025,4.394 -0.653,7.391 -2.066,9.153c-1.078,1.313 -2.971,2.122 -5.637,2.413c-0.719,0.091 -2.519,0.131 -5.653,0.131m0.084,-39.556c-2.459,-0 -4.606,0.084 -6.381,0.247c-3.247,0.294 -5.569,1.465 -7.097,3.578c-1.144,1.566 -1.909,3.931 -2.278,7.037c-0.169,1.394 -0.253,3.829 -0.253,7.241c-0,5.813 0.037,9.438 0.112,10.775c0.169,2.959 0.557,5.284 1.141,6.909c0.8,2.238 2.091,3.788 3.95,4.744c1.912,0.978 5.519,1.472 10.722,1.472c2.272,0 4.328,-0.062 6.112,-0.184c3.757,-0.272 6.335,-1.632 7.882,-4.147c0.821,-1.344 1.415,-3.478 1.759,-6.341c0.209,-1.715 0.319,-5.815 0.319,-12.187c-0,-4.082 -0.088,-6.866 -0.257,-8.282c-0.6,-4.993 -2.393,-8.212 -5.334,-9.559c-1.897,-0.862 -5.394,-1.303 -10.397,-1.303m-0.084,43.697c-5.55,-0 -9.31,-0.544 -11.494,-1.66c-2.231,-1.146 -3.834,-3.056 -4.769,-5.678c-0.643,-1.775 -1.062,-4.262 -1.24,-7.384c-0.078,-1.391 -0.116,-4.947 -0.116,-10.872c0,-3.528 0.088,-5.962 0.269,-7.444c0.4,-3.393 1.272,-6.031 2.587,-7.831c1.803,-2.494 4.6,-3.931 8.313,-4.269c1.825,-0.165 4.022,-0.253 6.534,-0.253c5.322,0 8.95,0.478 11.1,1.456c3.516,1.613 5.641,5.279 6.31,10.9c0.178,1.482 0.271,4.335 0.271,8.482c0,6.44 -0.112,10.609 -0.331,12.393c-0.381,3.147 -1.034,5.444 -1.997,7.019c-1.828,2.975 -4.925,4.641 -9.206,4.953c-1.825,0.125 -3.922,0.188 -6.231,0.188" style="fill:#1a171b;fill-rule:nonzero;"/><path d="M601.251,184.165l-0,42.818l-7.3,0l-21.988,-38.709l-0.112,0l0.059,3.231l0,35.478l-4.434,0l-0,-42.818l7.29,-0l22.007,38.922l0.043,0.009l0,-38.931l4.435,-0Z" style="fill:#1a171b;fill-rule:nonzero;"/><path d="M594.443,226.137l5.962,-0l0,-41.125l-2.743,-0l-0,39.137l-1.397,-0.309l-0.232,-0.338l-21.762,-38.49l-5.95,-0l-0,41.125l2.741,-0l-0.072,-38.71l1.353,0l0.356,0.429l21.744,38.281Zm7.653,1.694l-8.638,-0l-20.706,-36.454l0.003,0.113l0,36.341l-6.128,-0l0,-44.513l8.635,0l20.709,36.628l-0,-36.628l6.125,0l-0,44.513Z" style="fill:#1a171b;fill-rule:nonzero;"/><path d="M622.54,188.653l0,38.331l-4.434,0l-0,-38.331l-12.888,0l0,-4.487l30.122,-0l0,4.487l-12.8,0Z" style="fill:#1a171b;fill-rule:nonzero;"/><path d="M618.953,226.137l2.74,-0l0,-38.331l12.8,-0l0,-2.794l-28.428,-0l0,2.794l12.888,-0l-0,38.331Zm4.434,1.694l-6.128,-0l-0,-38.332l-12.888,0l0,-6.181l31.816,0l-0,6.181l-12.8,0l-0,38.332Z" style="fill:#1a171b;fill-rule:nonzero;"/><path d="M656.982,214.059l-8.769,-25.944l-8.678,25.944l17.447,0Zm1.3,3.859l-19.991,0l-3.065,9.066l-4.722,0l14.487,-42.819l6.253,0l14.772,42.819l-4.668,0l-3.066,-9.066Z" style="fill:#1a171b;fill-rule:nonzero;"/><path d="M640.71,213.213l15.094,-0l-7.588,-22.441l-7.506,22.441Zm17.45,1.693l-19.8,0l9.85,-29.447l9.95,29.447Zm3.794,11.232l2.875,-0l-14.188,-41.125l-5.044,-0l-13.912,41.125l2.934,-0l3.066,-9.066l21.203,-0l3.066,9.066Zm5.247,1.69l-6.46,0l-3.065,-9.065l-18.779,-0l-3.065,9.065l-6.506,0l15.059,-44.509l7.462,-0l15.354,44.509Z" style="fill:#1a171b;fill-rule:nonzero;"/><path d="M703.846,184.165l-0,42.818l-7.3,0l-21.988,-38.709l-0.112,0l0.059,3.231l0,35.478l-4.434,0l-0,-42.818l7.291,-0l22.003,38.922l0.047,0.009l-0,-38.931l4.434,-0Z" style="fill:#1a171b;fill-rule:nonzero;"/><path d="M697.038,226.137l5.963,-0l-0,-41.125l-2.741,-0l-0,39.122l-1.394,-0.288l-0.24,-0.344l-21.76,-38.49l-5.95,-0l0,41.125l2.744,-0l-0.078,-38.71l1.356,0l0.356,0.429l21.744,38.281Zm7.653,1.694l-8.637,-0l-20.703,-36.45l-0,36.45l-6.129,-0l0,-44.513l8.632,0l20.712,36.634l0,-36.634l6.125,0l0,44.513Z" style="fill:#1a171b;fill-rule:nonzero;"/><path d="M733.624,214.059l-8.768,-25.944l-8.678,25.944l17.446,0Zm1.3,3.859l-19.99,0l-3.066,9.066l-4.722,0l14.485,-42.819l6.259,0l14.769,42.819l-4.669,0l-3.066,-9.066Z" style="fill:#1a171b;fill-rule:nonzero;"/><path d="M717.354,213.213l15.091,-0l-7.585,-22.441l-7.506,22.441Zm17.45,1.693l-19.8,0l9.847,-29.447l9.953,29.447Zm3.794,11.232l2.872,-0l-14.185,-41.125l-5.047,-0l-13.909,41.125l2.934,-0l3.066,-9.066l21.203,-0l3.066,9.066Zm5.247,1.69l-6.46,0l-3.065,-9.065l-18.778,-0l-3.066,9.065l-6.509,0l15.056,-44.509l7.469,-0l15.353,44.509Z" style="fill:#1a171b;fill-rule:nonzero;"/><path d="M222.308,114.762c0,61.191 -49.6,110.782 -110.784,110.782c-61.191,-0 -110.791,-49.591 -110.791,-110.782c0,-61.184 49.6,-110.778 110.791,-110.778c61.184,0 110.784,49.594 110.784,110.778" style="fill:#fff;fill-rule:nonzero;"/><path d="M34.669,36.898c-19.922,19.929 -32.244,47.441 -32.244,77.85c-0,30.41 12.322,57.929 32.244,77.854c19.931,19.918 47.443,32.234 77.85,32.234c30.406,-0 57.922,-12.316 77.853,-32.234c19.922,-19.925 32.244,-47.444 32.244,-77.854c-0,-30.409 -12.322,-57.921 -32.244,-77.85c-19.931,-19.921 -47.447,-32.243 -77.853,-32.243c-30.407,-0 -57.919,12.322 -77.85,32.243m-34.669,77.85c0,-62.14 50.381,-112.518 112.519,-112.525c62.147,0.007 112.522,50.385 112.522,112.525c-0,62.147 -50.375,112.519 -112.522,112.519c-62.138,0 -112.519,-50.372 -112.519,-112.519" style="fill:#e42518;fill-rule:nonzero;"/><path d="M38.96,68.776c-0.087,2.05 -0.143,4.106 -0.143,6.181c-0,54.106 29.915,101.219 74.128,125.781c44.203,-24.562 74.128,-71.675 74.128,-125.781c-0,-1.913 -0.05,-3.81 -0.122,-5.706c-21.728,-12.791 -47.181,-20.15 -74.413,-20.15c-26.884,-0 -52.046,7.184 -73.578,19.675" style="fill:#e42518;fill-rule:nonzero;"/><path d="M186.22,77.746l-146.6,-0l1.209,14.531l24.653,-0l-0.068,-0l0.181,62.359l10.569,14.225l-0,-76.584l74.037,-0l0,76.584l10.572,-14.225l0.184,-62.359l-0.071,-0l24.384,-0.01l0.95,-14.521Z" style="fill:#fff;fill-rule:nonzero;"/><path d="M139.187,131.433l-19.054,0l0,-19.05l-15.14,0l-0,19.05l-19.056,0l-0,15.135l19.056,-0l-0,19.05l15.14,-0l0,-19.05l19.054,-0l-0,-15.135Z" style="fill:#fff;fill-rule:nonzero;"/><path d="M52.097,53.924c-15.462,15.463 -25.028,36.816 -25.028,60.425c0,23.591 9.566,44.954 25.028,60.422c15.466,15.466 36.825,25.028 60.422,25.028c23.603,0 44.956,-9.562 60.425,-25.028c15.459,-15.468 25.025,-36.831 25.025,-60.422c0,-23.609 -9.566,-44.962 -25.025,-60.425c-15.469,-15.468 -36.822,-25.028 -60.425,-25.028c-23.597,0 -44.956,9.56 -60.422,25.028m-27.453,60.425c0,-48.531 39.341,-87.878 87.875,-87.878c48.528,0 87.875,39.347 87.875,87.878c0,48.532 -39.347,87.869 -87.875,87.872c-48.534,-0.003 -87.875,-39.34 -87.875,-87.872" style="fill:#e42518;fill-rule:nonzero;"/><path d="M118.557,13.952c-0,0.394 -0.013,0.881 -0.038,1.469c-0.018,0.6 -0.05,1.1 -0.072,1.509c-0.028,0.391 -0.075,0.741 -0.137,1.003c-0.056,0.263 -0.134,0.478 -0.238,0.656c-0.093,0.175 -0.221,0.341 -0.39,0.491c-0.225,0.219 -0.491,0.391 -0.803,0.506c-0.282,0.113 -0.569,0.156 -0.872,0.156l-0.113,0c-0.312,-0.012 -0.634,-0.09 -0.937,-0.225c-0.306,-0.14 -0.55,-0.331 -0.753,-0.565c-0.166,-0.175 -0.285,-0.35 -0.363,-0.528c-0.084,-0.178 -0.153,-0.4 -0.19,-0.666c-0.041,-0.278 -0.06,-0.609 -0.06,-1.016l0,-0.065c0,-0.397 0.013,-0.878 0.035,-1.441c0.021,-0.603 0.04,-1.097 0.078,-1.506c0.031,-0.403 0.075,-0.744 0.134,-1.013c0.063,-0.253 0.134,-0.471 0.234,-0.65c0.094,-0.168 0.229,-0.337 0.394,-0.49c0.228,-0.222 0.491,-0.394 0.803,-0.506c0.285,-0.11 0.575,-0.163 0.872,-0.163l0.075,0c0.353,0.013 0.672,0.091 0.975,0.228c0.3,0.144 0.547,0.331 0.76,0.572c0.159,0.166 0.275,0.334 0.359,0.522c0.084,0.184 0.144,0.403 0.184,0.672c0.041,0.269 0.063,0.612 0.066,1.015c-0,0 -0.003,0 -0.003,0.035m1.744,-1.347c-0.054,-0.384 -0.154,-0.75 -0.304,-1.072c-0.146,-0.325 -0.362,-0.637 -0.631,-0.931c-0.806,-0.888 -1.853,-1.363 -3.065,-1.4c-0.066,-0 -0.129,-0.006 -0.197,-0.006c-1.141,-0 -2.138,0.39 -2.96,1.165c-0.293,0.275 -0.534,0.572 -0.706,0.894c-0.166,0.306 -0.294,0.653 -0.384,1.037c-0.091,0.369 -0.144,0.794 -0.169,1.266c-0.031,0.459 -0.059,0.988 -0.075,1.609c-0.025,0.613 -0.041,1.141 -0.044,1.607l0,0.137c0,0.41 0.019,0.797 0.075,1.141c0.063,0.381 0.163,0.737 0.303,1.062c0.157,0.335 0.369,0.65 0.65,0.944c0.797,0.878 1.841,1.359 3.057,1.4l0.193,0c0.541,0 1.038,-0.087 1.522,-0.259c0.538,-0.2 1.013,-0.5 1.441,-0.903c0.294,-0.269 0.528,-0.572 0.703,-0.891c0.172,-0.313 0.297,-0.656 0.384,-1.041c0.091,-0.372 0.138,-0.793 0.172,-1.265c0.022,-0.46 0.056,-0.994 0.075,-1.613c0.022,-0.606 0.035,-1.15 0.044,-1.606c-0,-0.05 -0.006,-0.094 -0.006,-0.134c-0,-0.413 -0.022,-0.794 -0.078,-1.141m14.246,-1.138l-3.275,7.885l-0.915,-8.578l-1.297,-0.213l-0.228,-0.04l-3.531,7.843l-0.66,-8.54l-1.894,-0.316l1.113,12.422l1.35,0.228l0.234,0.031l3.563,-7.853l0.94,8.603l1.35,0.216l0.232,0.047l4.912,-11.413l-1.894,-0.322Zm67.25,72.15l0,-0.006c-0.221,-0.253 -0.384,-0.537 -0.493,-0.856c-0.094,-0.278 -0.141,-0.55 -0.141,-0.844c0,-0.05 0,-0.1 0.003,-0.14c0.022,-0.35 0.103,-0.647 0.241,-0.938c0.1,-0.203 0.215,-0.387 0.347,-0.525c0.134,-0.147 0.315,-0.291 0.543,-0.422c0.238,-0.14 0.535,-0.278 0.9,-0.431c0.375,-0.147 0.841,-0.322 1.391,-0.522c0.556,-0.197 1.019,-0.341 1.403,-0.462c0.381,-0.122 0.7,-0.207 0.963,-0.244c0.147,-0.025 0.281,-0.031 0.409,-0.031c0.097,-0 0.191,0.006 0.275,0.021c0.197,0.025 0.394,0.091 0.597,0.194c0.281,0.135 0.531,0.325 0.756,0.578c0.219,0.257 0.385,0.541 0.491,0.869c0.097,0.269 0.14,0.547 0.14,0.831c0,0.05 -0.006,0.097 -0.006,0.166c-0.015,0.331 -0.097,0.631 -0.234,0.916c-0.103,0.209 -0.222,0.39 -0.356,0.531c-0.129,0.144 -0.31,0.29 -0.544,0.422c-0.231,0.137 -0.531,0.281 -0.894,0.428c-0.375,0.147 -0.834,0.319 -1.387,0.515c-0.557,0.197 -1.022,0.357 -1.4,0.472c-0.385,0.119 -0.707,0.2 -0.975,0.244c-0.147,0.016 -0.282,0.022 -0.41,0.022c-0.09,-0 -0.194,-0.006 -0.281,-0.019c-0.181,-0.015 -0.381,-0.084 -0.584,-0.194c-0.282,-0.128 -0.529,-0.318 -0.754,-0.575m1.672,2.66c0.2,-0 0.397,-0.022 0.603,-0.047l-0.034,-0.306l0.044,0.306c0.369,-0.059 0.781,-0.147 1.215,-0.297c0.435,-0.141 0.925,-0.309 1.497,-0.512c0.569,-0.204 1.063,-0.379 1.475,-0.544c0.441,-0.163 0.816,-0.344 1.141,-0.538c0.334,-0.2 0.625,-0.422 0.869,-0.675c0.25,-0.268 0.45,-0.578 0.625,-0.947c0.284,-0.612 0.428,-1.243 0.428,-1.884c-0,-0.509 -0.091,-1.031 -0.263,-1.537c-0.397,-1.172 -1.15,-2.054 -2.206,-2.579c-0.359,-0.184 -0.719,-0.309 -1.069,-0.353c-0.156,-0.022 -0.318,-0.031 -0.487,-0.031c-0.191,0 -0.394,0.009 -0.606,0.047c-0.369,0.056 -0.772,0.153 -1.216,0.3c-0.428,0.131 -0.928,0.303 -1.494,0.509c-0.569,0.197 -1.056,0.382 -1.481,0.541c-0.431,0.162 -0.816,0.337 -1.144,0.534c-0.322,0.207 -0.609,0.425 -0.853,0.688c-0.253,0.259 -0.456,0.569 -0.628,0.944c-0.288,0.606 -0.434,1.234 -0.434,1.875c-0,0.506 0.09,1.025 0.268,1.546c0.2,0.585 0.485,1.107 0.866,1.535c0.372,0.444 0.822,0.784 1.337,1.047c0.36,0.172 0.713,0.297 1.069,0.343c0.15,0.029 0.322,0.035 0.478,0.035m-41.631,-55.756l-2.95,-1.679l3.775,-3.371l-0.825,5.05Zm1.606,-8.025l-0.162,0.14l-9.431,8.231l1.696,0.963l2.025,-1.813l3.954,2.244l-0.444,2.716l1.703,0.969l1.919,-12.735l-1.26,-0.715Zm-67.056,-5.96l0,-0.009c-0.306,-0.185 -0.637,-0.316 -0.997,-0.378c-0.253,-0.06 -0.556,-0.072 -0.903,-0.072c-0.147,-0 -0.297,-0 -0.462,0.006l-1.247,0.038l-0.047,-0c-0.26,-0 -0.519,-0.016 -0.772,-0.069c-0.256,-0.044 -0.472,-0.125 -0.641,-0.219c-0.287,-0.181 -0.487,-0.475 -0.584,-0.987c-0.028,-0.147 -0.041,-0.285 -0.041,-0.413c0.007,-0.375 0.103,-0.694 0.316,-0.972c0.275,-0.384 0.737,-0.65 1.45,-0.794c0.319,-0.059 0.606,-0.09 0.866,-0.09c0.206,-0 0.39,0.019 0.55,0.056c0.387,0.084 0.771,0.238 1.146,0.466l0.241,0.15l0.975,-1.435l-0.275,-0.168c-0.591,-0.363 -1.175,-0.591 -1.772,-0.697c-0.244,-0.041 -0.503,-0.063 -0.778,-0.063c-0.381,0 -0.781,0.041 -1.212,0.125c-0.572,0.113 -1.094,0.294 -1.535,0.547c-0.447,0.247 -0.806,0.569 -1.09,0.934c-0.291,0.369 -0.482,0.794 -0.591,1.263c-0.053,0.244 -0.081,0.494 -0.078,0.759c-0.003,0.232 0.015,0.472 0.065,0.722c0.169,0.95 0.644,1.694 1.375,2.147c0.591,0.353 1.322,0.503 2.191,0.503l0.163,0l1.353,-0.04c0.131,-0.007 0.247,-0.013 0.353,-0.013c0.234,0 0.412,0.013 0.525,0.028c0.172,0.035 0.337,0.091 0.515,0.2c0.163,0.097 0.288,0.231 0.4,0.419c0.116,0.197 0.2,0.419 0.247,0.684c0.022,0.128 0.028,0.257 0.028,0.378c0,0.41 -0.118,0.729 -0.378,1.029c-0.347,0.387 -0.884,0.668 -1.656,0.812c-0.344,0.063 -0.662,0.097 -0.962,0.097c-0.222,-0 -0.435,-0.016 -0.632,-0.047c-0.44,-0.078 -0.934,-0.294 -1.447,-0.653l-0.246,-0.169l-1.007,1.481l0.253,0.175c0.647,0.457 1.313,0.744 1.991,0.875c0.3,0.047 0.606,0.069 0.928,0.069c0.441,0 0.9,-0.04 1.394,-0.134c0.609,-0.119 1.159,-0.306 1.625,-0.556c0.478,-0.254 0.872,-0.563 1.187,-0.929c0.319,-0.371 0.541,-0.812 0.663,-1.281c0.072,-0.262 0.1,-0.54 0.1,-0.822c-0,-0.228 -0.022,-0.468 -0.066,-0.7c-0.178,-1.015 -0.684,-1.797 -1.481,-2.253m10.253,-7.206l0.028,0.309l0.597,8.11l-6.165,-7.994l-1.3,0.1l-0.307,0.022l0.891,12.04l1.812,-0.137l-0.621,-8.453l6.165,8.028l1.3,-0.103l0.3,-0.022l-0.887,-12.047l-1.813,0.147Zm64.544,24.378l-2.225,-1.6l2.028,-2.922l2.222,1.603c0.503,0.372 0.794,0.772 0.912,1.225c0.038,0.113 0.054,0.228 0.054,0.341c-0,0.325 -0.122,0.675 -0.385,1.059c-0.369,0.532 -0.747,0.76 -1.175,0.782l-0.112,-0c-0.422,-0 -0.86,-0.154 -1.319,-0.488m2.191,2.163l-0.057,-0.3l0.063,0.296c0.756,-0.181 1.394,-0.668 1.903,-1.393c0.297,-0.432 0.5,-0.882 0.6,-1.344c0.05,-0.241 0.072,-0.475 0.072,-0.697c-0,-0.234 -0.022,-0.453 -0.072,-0.672c-0.094,-0.44 -0.281,-0.865 -0.556,-1.24c-0.269,-0.391 -0.632,-0.747 -1.057,-1.066l-3.803,-2.738l-6.828,9.86l1.485,1.069l2.878,-4.15l1.822,1.321l-0.775,5.669l1.725,1.241l0.756,-5.947c0.359,0.119 0.719,0.175 1.084,0.175c0.253,-0 0.506,-0.034 0.76,-0.084m33.978,34.206l-0.272,0.137l-4.238,2.135l-2.109,-4.378l4.506,-2.269l-0.803,-1.663l-10.603,5.335l0.797,1.659l4.594,-2.303l2.106,4.375l-4.588,2.309l0.797,1.666l10.616,-5.338l-0.803,-1.665Zm-125.263,-46.475c-0.159,0.356 -0.375,0.637 -0.65,0.84c-0.278,0.219 -0.622,0.397 -1.012,0.535l-2.047,0.725l-2.766,-8.175l2.05,-0.725c0.397,-0.138 0.769,-0.21 1.128,-0.216l0.035,0c0.322,0 0.647,0.078 0.978,0.253c0.203,0.113 0.394,0.26 0.559,0.457c0.172,0.209 0.322,0.446 0.453,0.712c0.138,0.272 0.263,0.566 0.378,0.878c0.11,0.331 0.225,0.656 0.335,0.997c0.109,0.328 0.231,0.675 0.347,1.028c0.106,0.35 0.197,0.691 0.265,1.025c0.066,0.313 0.103,0.613 0.103,0.897c0,0 -0.009,0.025 0,0.075c-0.009,0.241 -0.059,0.491 -0.156,0.694m1.556,-3.131c-0.134,-0.422 -0.268,-0.819 -0.396,-1.194c-0.125,-0.378 -0.26,-0.753 -0.4,-1.144c-0.135,-0.409 -0.304,-0.794 -0.5,-1.156c-0.194,-0.366 -0.432,-0.706 -0.71,-1.019c-0.284,-0.316 -0.637,-0.578 -1.044,-0.772c-0.475,-0.234 -0.99,-0.359 -1.559,-0.365c-0.006,-0.004 -0.041,-0.004 -0.072,-0.004c-0.537,-0.003 -1.087,0.094 -1.65,0.297l-3.962,1.397l3.856,11.406l3.959,-1.387c0.594,-0.206 1.107,-0.491 1.541,-0.85c0.431,-0.359 0.775,-0.784 1.003,-1.263c0.206,-0.415 0.322,-0.865 0.341,-1.321c0.009,-0.094 0.009,-0.188 0.009,-0.3c0,-0.341 -0.028,-0.682 -0.097,-1.029c-0.072,-0.425 -0.178,-0.865 -0.319,-1.296m69.626,5.243c-0.169,0.36 -0.332,0.663 -0.479,0.888c-0.143,0.231 -0.296,0.406 -0.45,0.528c-0.143,0.131 -0.325,0.237 -0.534,0.316c-0.275,0.128 -0.572,0.19 -0.9,0.19l-0.006,0c-0.016,-0.006 -0.041,-0.006 -0.094,0c-0.263,0 -0.578,-0.078 -0.888,-0.203c-0.309,-0.131 -0.578,-0.319 -0.809,-0.562c-0.237,-0.238 -0.406,-0.513 -0.516,-0.8c-0.09,-0.219 -0.137,-0.425 -0.15,-0.625c-0.006,-0.054 -0.012,-0.094 -0.012,-0.141c0,-0.166 0.019,-0.35 0.072,-0.55c0.053,-0.272 0.153,-0.597 0.287,-0.972c0.147,-0.384 0.335,-0.85 0.557,-1.4c0.225,-0.544 0.422,-1.012 0.596,-1.372c0.166,-0.362 0.325,-0.669 0.482,-0.897c0.14,-0.225 0.287,-0.397 0.447,-0.528c0.147,-0.122 0.325,-0.234 0.534,-0.315c0.275,-0.122 0.569,-0.185 0.884,-0.191c0.01,0.006 0.01,-0 0.01,-0c0.387,0.012 0.694,0.084 0.99,0.212c0.31,0.129 0.578,0.319 0.816,0.566c0.228,0.231 0.406,0.5 0.516,0.8c0.084,0.213 0.134,0.419 0.15,0.619c0.006,0.04 0.006,0.087 0.006,0.14c-0,0.157 -0.022,0.347 -0.069,0.55c-0.059,0.269 -0.15,0.597 -0.291,0.972c-0.14,0.378 -0.325,0.85 -0.556,1.394c-0.228,0.547 -0.428,1.019 -0.593,1.381m1.037,1.944c0.219,-0.319 0.412,-0.694 0.597,-1.128c0.187,-0.416 0.4,-0.897 0.631,-1.472c0.234,-0.566 0.434,-1.056 0.603,-1.491c0.166,-0.437 0.294,-0.84 0.369,-1.225c0.066,-0.293 0.097,-0.578 0.097,-0.862c-0,-0.081 -0.01,-0.163 -0.01,-0.231c-0.021,-0.375 -0.115,-0.744 -0.268,-1.119c-0.447,-1.113 -1.26,-1.934 -2.382,-2.419c-0.584,-0.253 -1.168,-0.39 -1.756,-0.39c-0.54,-0 -1.072,0.118 -1.603,0.328c-0.366,0.156 -0.687,0.343 -0.959,0.587c-0.269,0.228 -0.5,0.506 -0.722,0.831c-0.213,0.322 -0.413,0.691 -0.6,1.119c-0.191,0.425 -0.397,0.913 -0.625,1.472c-0.238,0.572 -0.441,1.066 -0.603,1.491c-0.166,0.44 -0.294,0.853 -0.372,1.228c-0.063,0.29 -0.091,0.578 -0.091,0.865c0,0.079 0,0.15 0.01,0.241c0.025,0.359 0.115,0.728 0.265,1.113c0.447,1.115 1.26,1.934 2.372,2.415c0.566,0.244 1.131,0.363 1.7,0.375l0.05,0c0.553,0 1.085,-0.106 1.606,-0.319c0.379,-0.15 0.697,-0.337 0.972,-0.571c0.266,-0.235 0.507,-0.516 0.719,-0.838m39.591,38.372c0.103,-0 0.209,-0.013 0.306,-0.013c0.525,-0.04 1.037,-0.168 1.553,-0.4l0.334,-0.14l-0.993,-1.55l-0.222,0.087c-0.366,0.147 -0.713,0.207 -1.038,0.21c-0.231,-0.003 -0.456,-0.035 -0.675,-0.1c-0.528,-0.157 -0.965,-0.497 -1.318,-1.06c-0.185,-0.268 -0.3,-0.578 -0.369,-0.922c-0.038,-0.159 -0.053,-0.318 -0.053,-0.471c-0,-0.169 0.015,-0.319 0.053,-0.475c0.05,-0.232 0.125,-0.435 0.206,-0.607c0.103,-0.172 0.247,-0.356 0.438,-0.543c0.206,-0.188 0.465,-0.413 0.784,-0.644c0.331,-0.235 0.734,-0.516 1.225,-0.847c0.491,-0.328 0.912,-0.588 1.253,-0.8c0.338,-0.2 0.634,-0.363 0.888,-0.469c0.25,-0.106 0.471,-0.172 0.665,-0.187c0.063,-0.01 0.116,-0.016 0.178,-0.016c0.138,0.006 0.285,0.022 0.441,0.056c0.309,0.063 0.591,0.188 0.866,0.385c0.265,0.19 0.496,0.434 0.678,0.715c0.29,0.457 0.425,0.9 0.425,1.338c-0,0.097 -0.01,0.2 -0.022,0.309c-0.078,0.556 -0.335,1.066 -0.794,1.535l-0.175,0.175l1.013,1.587l0.262,-0.259c0.409,-0.391 0.734,-0.819 0.981,-1.275c0.235,-0.46 0.382,-0.938 0.435,-1.428c0.022,-0.157 0.022,-0.313 0.022,-0.457c-0,-0.35 -0.038,-0.684 -0.119,-1.018c-0.122,-0.494 -0.328,-0.982 -0.622,-1.438c-0.328,-0.512 -0.731,-0.937 -1.197,-1.275c-0.472,-0.334 -0.994,-0.559 -1.553,-0.691c-0.275,-0.056 -0.538,-0.087 -0.797,-0.087c-0.106,-0 -0.216,-0 -0.334,0.016c-0.341,0.04 -0.685,0.134 -1.044,0.284c-0.353,0.144 -0.719,0.344 -1.113,0.591c-0.378,0.237 -0.828,0.531 -1.331,0.859c-0.497,0.337 -0.937,0.631 -1.303,0.894c-0.378,0.265 -0.712,0.534 -0.981,0.797c-0.272,0.271 -0.497,0.568 -0.675,0.878c-0.178,0.312 -0.31,0.675 -0.388,1.072c-0.059,0.296 -0.087,0.59 -0.087,0.887c-0,0.281 0.025,0.566 0.081,0.847c0.106,0.566 0.325,1.116 0.656,1.625c0.294,0.466 0.641,0.85 1.038,1.159c0.39,0.313 0.815,0.547 1.278,0.688c0.362,0.122 0.734,0.178 1.119,0.178l0.025,-0Zm-49.666,-48.334c-0.084,0.296 -0.2,0.518 -0.35,0.687c-0.156,0.181 -0.319,0.294 -0.516,0.381c-0.184,0.069 -0.39,0.11 -0.631,0.119l0,-0.009c-0.006,-0 -0.031,-0 -0.053,0.009c-0.241,-0.009 -0.494,-0.056 -0.769,-0.134l-2.543,-0.772l0.931,-3.216l2.55,0.775c0.284,0.094 0.528,0.197 0.74,0.344c0.21,0.131 0.366,0.281 0.485,0.462c0.115,0.169 0.19,0.366 0.231,0.588c0.009,0.066 0.016,0.141 0.016,0.219c-0,0.162 -0.032,0.343 -0.091,0.547m-1.284,5.009c-0.153,0.566 -0.432,0.897 -0.85,1.109c-0.228,0.116 -0.482,0.172 -0.763,0.172c-0.24,0 -0.49,-0.04 -0.775,-0.125l-2.672,-0.812l1.003,-3.432l2.669,0.816c0.622,0.191 1.025,0.484 1.269,0.884c0.147,0.254 0.212,0.507 0.219,0.8c-0,0.185 -0.032,0.379 -0.1,0.588m2.734,-7.169l-0.259,0.163l0.259,-0.163c-0.231,-0.375 -0.541,-0.703 -0.925,-0.975c-0.381,-0.269 -0.828,-0.487 -1.334,-0.634l-4.375,-1.331l-3.375,11.562l4.515,1.378c0.478,0.147 0.953,0.219 1.394,0.213l0.034,-0c0.51,-0 0.947,-0.097 1.341,-0.291c0.409,-0.191 0.759,-0.472 1.056,-0.841c0.294,-0.365 0.522,-0.828 0.672,-1.346c0.103,-0.344 0.16,-0.688 0.16,-1.007c-0,-0.347 -0.069,-0.684 -0.182,-0.993c-0.143,-0.385 -0.356,-0.741 -0.622,-1.041c0.332,-0.1 0.644,-0.266 0.932,-0.491c0.478,-0.362 0.825,-0.893 1.006,-1.528c0.106,-0.356 0.162,-0.706 0.162,-1.044c0,-0.134 -0.015,-0.262 -0.028,-0.384c-0.056,-0.462 -0.203,-0.872 -0.431,-1.247m45.475,38.938l0,-0.132c0,-0.318 -0.053,-0.631 -0.153,-0.937c-0.113,-0.363 -0.313,-0.772 -0.6,-1.25l-0.638,-1.1c-0.14,-0.25 -0.243,-0.5 -0.331,-0.769c-0.087,-0.253 -0.115,-0.478 -0.115,-0.675c0.006,-0.353 0.162,-0.665 0.553,-1.003c0.372,-0.3 0.718,-0.444 1.1,-0.444c0.078,0 0.153,0.013 0.218,0.019c0.472,0.075 0.929,0.353 1.388,0.922c0.359,0.462 0.6,0.878 0.716,1.253c0.1,0.331 0.15,0.684 0.15,1.056c-0,0.066 -0.007,0.125 -0.007,0.197l-0.003,0.281l1.366,0.15l0.328,0.038l0.016,-0.331l-0,-0.247c-0,-0.6 -0.091,-1.16 -0.257,-1.666c-0.197,-0.581 -0.528,-1.162 -1.006,-1.756c-0.381,-0.469 -0.781,-0.844 -1.216,-1.122c-0.428,-0.266 -0.868,-0.444 -1.328,-0.519c-0.159,-0.031 -0.334,-0.05 -0.5,-0.05c-0.29,0 -0.581,0.041 -0.868,0.128c-0.447,0.141 -0.879,0.366 -1.269,0.704c-0.744,0.615 -1.16,1.387 -1.188,2.256l0,0.084c0,0.713 0.247,1.469 0.707,2.281l0.681,1.185c0.206,0.362 0.353,0.631 0.409,0.8c0.044,0.14 0.069,0.3 0.069,0.49l-0,0.082c-0.006,0.168 -0.053,0.35 -0.156,0.54c-0.116,0.191 -0.263,0.369 -0.469,0.541c-0.347,0.291 -0.672,0.406 -1.022,0.412c-0.112,0 -0.234,-0.018 -0.366,-0.046c-0.487,-0.119 -0.993,-0.466 -1.49,-1.091c-0.381,-0.478 -0.65,-0.941 -0.8,-1.394c-0.113,-0.325 -0.166,-0.694 -0.166,-1.119c0,-0.162 0.01,-0.325 0.025,-0.487l0.028,-0.313l-1.459,-0.15l-0.303,-0.04l-0.028,0.319c-0.019,0.203 -0.028,0.396 -0.028,0.584c-0,0.578 0.078,1.119 0.246,1.625c0.219,0.669 0.61,1.35 1.163,2.041c0.397,0.49 0.819,0.887 1.262,1.184c0.444,0.303 0.9,0.512 1.372,0.612c0.225,0.05 0.447,0.075 0.663,0.075c0.253,0 0.5,-0.031 0.753,-0.09c0.475,-0.122 0.919,-0.36 1.325,-0.71c0.787,-0.646 1.212,-1.484 1.228,-2.418m-178.769,27.228l0.207,0.115l7.162,3.979l-8.453,0.1l-0.338,1.29l-0.056,0.235l7.294,4.343l-8.384,-0.159l-0.491,1.897l12.219,0.072l0.403,-1.575l-7.306,-4.388l8.475,-0.128l0.409,-1.575l-10.653,-6.106l-0.488,1.9Zm15.478,-11.531c-0.3,-0.388 -0.7,-0.688 -1.181,-0.925c-0.487,-0.232 -0.987,-0.363 -1.475,-0.363c-0.412,0 -0.812,0.088 -1.203,0.278c-0.309,0.138 -0.606,0.331 -0.872,0.581c-0.272,0.257 -0.547,0.616 -0.853,1.094l-0.694,1.063c-0.159,0.228 -0.343,0.437 -0.534,0.628c-0.194,0.184 -0.384,0.322 -0.563,0.4c-0.118,0.062 -0.265,0.09 -0.421,0.09c-0.204,0 -0.444,-0.062 -0.697,-0.187c-0.516,-0.247 -0.797,-0.578 -0.938,-1.041c-0.05,-0.156 -0.075,-0.312 -0.075,-0.481c0,-0.356 0.097,-0.741 0.297,-1.175c0.247,-0.531 0.522,-0.931 0.806,-1.197c0.288,-0.278 0.635,-0.5 1.035,-0.662l0.268,-0.122l-0.562,-1.644l-0.297,0.128c-0.631,0.275 -1.159,0.625 -1.591,1.053c-0.428,0.422 -0.806,0.988 -1.128,1.675c-0.253,0.55 -0.4,1.085 -0.468,1.597c-0.016,0.166 -0.025,0.328 -0.025,0.488c-0,0.334 0.04,0.653 0.128,0.962c0.118,0.456 0.343,0.872 0.659,1.228c0.313,0.366 0.7,0.657 1.163,0.875c0.481,0.235 0.959,0.36 1.431,0.36c0.365,-0 0.728,-0.082 1.078,-0.225c0.662,-0.3 1.253,-0.872 1.794,-1.672l0.75,-1.128c0.231,-0.341 0.418,-0.588 0.534,-0.713c0.119,-0.115 0.263,-0.222 0.453,-0.309c0.141,-0.06 0.297,-0.091 0.453,-0.091c0.047,0 0.072,0 0.113,0.006c0.222,0.019 0.447,0.085 0.687,0.2c0.528,0.26 0.803,0.61 0.91,1.113c0.028,0.128 0.043,0.272 0.043,0.412c0,0.416 -0.118,0.9 -0.368,1.435c-0.263,0.569 -0.563,1.009 -0.891,1.337c-0.334,0.328 -0.781,0.6 -1.375,0.822l-0.275,0.097l0.581,1.716l0.291,-0.107c0.731,-0.275 1.359,-0.653 1.859,-1.143c0.507,-0.491 0.941,-1.147 1.319,-1.95c0.263,-0.575 0.431,-1.135 0.513,-1.672c0.031,-0.228 0.043,-0.45 0.043,-0.666c0,-0.303 -0.028,-0.587 -0.09,-0.869c-0.116,-0.484 -0.319,-0.909 -0.632,-1.296m4.904,-8.363c-0.269,-0.416 -0.632,-0.766 -1.091,-1.047c-0.556,-0.359 -1.134,-0.54 -1.722,-0.54c-0.312,-0 -0.622,0.05 -0.928,0.153c-0.319,0.103 -0.641,0.265 -0.928,0.487c-0.297,0.231 -0.606,0.56 -0.956,0.994l-0.813,0.987c-0.181,0.207 -0.381,0.394 -0.594,0.563c-0.209,0.162 -0.412,0.272 -0.593,0.344c-0.094,0.034 -0.204,0.05 -0.313,0.05c-0.234,-0 -0.5,-0.085 -0.797,-0.266c-0.478,-0.312 -0.734,-0.666 -0.825,-1.141c-0.015,-0.103 -0.034,-0.203 -0.034,-0.303c-0,-0.397 0.131,-0.834 0.434,-1.325c0.3,-0.503 0.61,-0.865 0.919,-1.097c0.322,-0.24 0.681,-0.428 1.109,-0.556l0.275,-0.084l-0.393,-1.7l-0.31,0.106c-0.653,0.203 -1.219,0.488 -1.69,0.872c-0.469,0.375 -0.904,0.887 -1.291,1.541c-0.309,0.512 -0.516,1.025 -0.631,1.537c-0.069,0.303 -0.097,0.591 -0.097,0.881c-0,0.191 0.012,0.382 0.047,0.569c0.072,0.466 0.25,0.897 0.525,1.291c0.272,0.393 0.631,0.728 1.062,1c0.547,0.34 1.113,0.531 1.675,0.531c0.275,-0 0.541,-0.05 0.803,-0.131c0.697,-0.228 1.347,-0.722 1.96,-1.457l0.865,-1.046c0.266,-0.316 0.472,-0.535 0.61,-0.65c0.137,-0.107 0.287,-0.2 0.481,-0.26c0.109,-0.034 0.222,-0.053 0.334,-0.053c0.078,0 0.153,0.006 0.238,0.031c0.219,0.038 0.437,0.128 0.659,0.272c0.5,0.313 0.741,0.691 0.8,1.206c0,0.06 0.006,0.122 0.006,0.191c0,0.472 -0.168,1.013 -0.528,1.616c-0.322,0.525 -0.662,0.94 -1.028,1.228c-0.359,0.284 -0.84,0.515 -1.444,0.672l-0.287,0.062l0.397,1.766l0.297,-0.072c0.759,-0.197 1.425,-0.503 1.965,-0.941c0.557,-0.437 1.057,-1.031 1.51,-1.797c0.328,-0.54 0.559,-1.065 0.693,-1.6c0.088,-0.375 0.144,-0.734 0.135,-1.084c-0,-0.156 -0.006,-0.303 -0.022,-0.441c-0.059,-0.493 -0.222,-0.956 -0.484,-1.359m7.456,-12.1l-0.197,0.225l0.197,-0.231c-0.622,-0.541 -1.322,-0.828 -2.044,-0.822c-0.172,-0 -0.35,0.009 -0.522,0.047c-0.334,0.047 -0.675,0.162 -0.994,0.34c-0.318,0.179 -0.681,0.457 -1.087,0.835l-0.941,0.847c-0.212,0.175 -0.437,0.334 -0.675,0.465c-0.234,0.135 -0.443,0.216 -0.628,0.253c-0.05,0.01 -0.112,0.013 -0.175,0.013c-0.275,-0 -0.572,-0.122 -0.9,-0.397c-0.425,-0.375 -0.631,-0.772 -0.65,-1.25l0,-0.075c0,-0.444 0.188,-0.944 0.631,-1.469c0.375,-0.456 0.735,-0.765 1.072,-0.947c0.344,-0.196 0.741,-0.321 1.175,-0.387l0.285,-0.044l-0.116,-1.406l-0.025,-0.325l-0.322,0.044c-0.675,0.112 -1.272,0.312 -1.794,0.606c-0.521,0.309 -1.021,0.756 -1.509,1.347c-0.372,0.456 -0.659,0.931 -0.847,1.415c-0.172,0.457 -0.262,0.916 -0.262,1.354c-0,0.015 -0,0.053 0.006,0.103c0.009,0.44 0.119,0.897 0.325,1.331c0.222,0.428 0.525,0.809 0.912,1.147c0.607,0.522 1.279,0.8 1.975,0.8c0.144,-0 0.282,-0.013 0.413,-0.028c0.722,-0.125 1.441,-0.516 2.159,-1.147l1.01,-0.9c0.3,-0.281 0.543,-0.469 0.693,-0.556c0.135,-0.091 0.31,-0.147 0.516,-0.179c0.056,-0.009 0.109,-0.018 0.163,-0.018c0.128,-0 0.262,0.025 0.406,0.075c0.2,0.078 0.406,0.2 0.609,0.368c0.422,0.366 0.606,0.757 0.613,1.232c-0,0.025 -0,0.059 -0.007,0.1c-0.025,0.509 -0.262,1.072 -0.768,1.687c-0.397,0.478 -0.794,0.831 -1.2,1.069c-0.397,0.225 -0.903,0.381 -1.525,0.437l-0.297,0.029l0.119,1.49l0.021,0.303l0.313,-0.025c0.772,-0.068 1.469,-0.278 2.081,-0.625c0.606,-0.343 1.191,-0.856 1.744,-1.553c0.406,-0.481 0.712,-0.969 0.919,-1.475c0.203,-0.503 0.322,-0.997 0.334,-1.49l0,-0.1c0,-0.46 -0.094,-0.9 -0.281,-1.319c-0.206,-0.447 -0.516,-0.847 -0.925,-1.194m-20.325,48.475c-0.253,-0.428 -0.585,-0.772 -0.997,-1.031c-0.403,-0.266 -0.878,-0.431 -1.406,-0.5c-0.175,-0.025 -0.344,-0.038 -0.507,-0.038c-0.793,0 -1.506,0.272 -2.056,0.803c-0.262,0.229 -0.481,0.51 -0.659,0.841c-0.172,0.325 -0.328,0.763 -0.469,1.303l-0.341,1.231c-0.084,0.266 -0.187,0.532 -0.312,0.769c-0.128,0.244 -0.266,0.419 -0.403,0.563c-0.206,0.187 -0.466,0.287 -0.831,0.287c-0.082,0 -0.179,-0.009 -0.282,-0.019c-0.55,-0.081 -0.925,-0.303 -1.2,-0.693c-0.209,-0.3 -0.325,-0.685 -0.325,-1.185c0,-0.143 0.013,-0.3 0.028,-0.456c0.075,-0.591 0.216,-1.053 0.397,-1.394c0.197,-0.347 0.457,-0.678 0.788,-0.972l0.215,-0.187l-1.046,-1.394l-0.238,0.228c-0.516,0.46 -0.906,0.96 -1.181,1.497c-0.288,0.55 -0.466,1.203 -0.563,1.963c-0.025,0.253 -0.04,0.487 -0.04,0.725c-0,0.325 0.022,0.634 0.087,0.937c0.103,0.503 0.285,0.956 0.538,1.344c0.253,0.391 0.593,0.716 1.003,0.953c0.409,0.247 0.865,0.4 1.365,0.466c0.172,0.028 0.347,0.034 0.51,0.034c0.74,0 1.394,-0.247 1.915,-0.719c0.541,-0.493 0.929,-1.215 1.197,-2.15l0.369,-1.312c0.109,-0.41 0.216,-0.691 0.294,-0.85c0.072,-0.15 0.175,-0.3 0.331,-0.441c0.144,-0.122 0.309,-0.212 0.513,-0.262c0.131,-0.032 0.275,-0.05 0.418,-0.05c0.097,-0 0.188,0.003 0.278,0.018c0.6,0.082 0.963,0.329 1.222,0.769c0.191,0.341 0.3,0.766 0.3,1.288c0,0.181 -0.018,0.368 -0.043,0.578c-0.072,0.619 -0.222,1.137 -0.441,1.553c-0.213,0.416 -0.556,0.819 -1.05,1.209l-0.231,0.191l1.075,1.437l0.24,-0.187c0.622,-0.503 1.091,-1.066 1.419,-1.684c0.331,-0.632 0.544,-1.382 0.653,-2.275c0.035,-0.288 0.05,-0.569 0.05,-0.844c0,-0.313 -0.028,-0.619 -0.075,-0.906c-0.09,-0.532 -0.262,-1.019 -0.509,-1.438m-5.991,-20.597l0.281,0.113l10.769,4.178l0.647,-1.741l-11.056,-4.287l-0.641,1.737Zm168.903,-37.772c0,0.213 -0.04,0.438 -0.122,0.66c-0.09,0.259 -0.212,0.512 -0.381,0.762c-0.165,0.253 -0.362,0.503 -0.581,0.76c-0.219,0.256 -0.444,0.521 -0.678,0.784c-0.228,0.266 -0.469,0.537 -0.716,0.809c-0.24,0.263 -0.487,0.51 -0.74,0.741c-0.241,0.216 -0.494,0.397 -0.757,0.534c-0.243,0.135 -0.475,0.216 -0.709,0.225c-0.041,0.003 -0.109,0.003 -0.169,0.003c-0.309,0 -0.59,-0.059 -0.853,-0.171c-0.322,-0.141 -0.644,-0.36 -0.959,-0.644l-1.61,-1.485l5.65,-6.434l1.616,1.472c0.309,0.291 0.553,0.587 0.728,0.906c0.172,0.291 0.263,0.631 0.281,1.028l0,0.05Zm1.128,2.288c0.219,-0.36 0.388,-0.735 0.522,-1.131c0.107,-0.35 0.157,-0.707 0.157,-1.079c-0,-0.081 -0,-0.165 -0.004,-0.234c-0.034,-0.534 -0.181,-1.062 -0.443,-1.562c-0.26,-0.504 -0.632,-0.972 -1.097,-1.4l-3.122,-2.85l-7.881,8.99l3.115,2.856c0.463,0.432 0.953,0.747 1.482,0.957c0.453,0.187 0.909,0.287 1.375,0.287l0.168,0c0.472,-0.028 0.913,-0.137 1.316,-0.344c0.387,-0.19 0.756,-0.431 1.094,-0.715c0.337,-0.285 0.656,-0.594 0.956,-0.928c0.297,-0.328 0.566,-0.641 0.825,-0.932c0.262,-0.296 0.522,-0.606 0.791,-0.912c0.275,-0.325 0.525,-0.659 0.746,-1.003m-115.993,-23.228l0.134,0.278l3.472,7.319l-8.606,-5.125l-1.447,0.718l5.15,10.863l1.634,-0.806l-3.619,-7.632l8.622,5.16l1.444,-0.716l-5.15,-10.862l-1.634,0.803Zm135.9,74.256l0.29,-0.066c-0.04,-0.175 -0.053,-0.362 -0.053,-0.537c0,-0.15 0.013,-0.306 0.038,-0.453c0.059,-0.347 0.172,-0.635 0.347,-0.894c0.121,-0.2 0.259,-0.359 0.409,-0.491c0.147,-0.131 0.347,-0.243 0.594,-0.347c0.24,-0.106 0.559,-0.212 0.937,-0.312c0.385,-0.103 0.869,-0.219 1.444,-0.35c0.569,-0.119 1.05,-0.222 1.447,-0.294c0.387,-0.069 0.715,-0.1 0.984,-0.115l0.103,-0c0.222,-0 0.41,0.018 0.572,0.068c0.197,0.047 0.381,0.138 0.569,0.266c0.269,0.169 0.494,0.387 0.684,0.672c0.191,0.281 0.316,0.587 0.391,0.915c0.037,0.182 0.053,0.363 0.056,0.535c-0.003,0.159 -0.012,0.309 -0.04,0.462c-0.054,0.341 -0.172,0.635 -0.344,0.894c-0.122,0.2 -0.26,0.353 -0.41,0.481c-0.15,0.128 -0.35,0.25 -0.59,0.353c-0.247,0.107 -0.563,0.213 -0.947,0.316c-0.384,0.097 -0.863,0.219 -1.434,0.344c-0.572,0.128 -1.057,0.225 -1.454,0.297c-0.387,0.075 -0.715,0.106 -0.984,0.115l-0.1,0c-0.225,0 -0.419,-0.028 -0.584,-0.068c-0.191,-0.06 -0.372,-0.141 -0.563,-0.266c-0.265,-0.172 -0.487,-0.384 -0.675,-0.669c-0.197,-0.281 -0.322,-0.581 -0.397,-0.922l-0.29,0.066Zm1.562,3.603l0,0.009c0.294,0.072 0.613,0.119 0.941,0.119l0.122,0c0.393,-0.006 0.812,-0.062 1.259,-0.14c0.447,-0.097 0.959,-0.197 1.544,-0.325c0.59,-0.138 1.106,-0.254 1.537,-0.363c0.441,-0.109 0.844,-0.244 1.197,-0.397c0.35,-0.153 0.66,-0.353 0.935,-0.572c0.275,-0.231 0.515,-0.515 0.731,-0.862c0.447,-0.719 0.681,-1.503 0.681,-2.335c0,-0.346 -0.044,-0.687 -0.116,-1.037c-0.253,-1.216 -0.893,-2.181 -1.884,-2.834c-0.341,-0.225 -0.678,-0.382 -1.022,-0.475c-0.306,-0.082 -0.631,-0.122 -0.978,-0.122c-0.028,-0 -0.072,-0.01 -0.141,0.009c-0.34,0 -0.756,0.047 -1.209,0.141c-0.441,0.087 -0.953,0.193 -1.544,0.322c-0.584,0.131 -1.093,0.256 -1.534,0.356c-0.447,0.115 -0.844,0.244 -1.194,0.403c-0.35,0.153 -0.662,0.337 -0.931,0.559c-0.278,0.238 -0.522,0.522 -0.734,0.869c-0.45,0.719 -0.685,1.5 -0.685,2.331c0,0.341 0.044,0.685 0.122,1.044c0.125,0.609 0.347,1.156 0.669,1.631c0.319,0.472 0.725,0.878 1.209,1.2c0.338,0.225 0.678,0.378 1.025,0.469m10.328,3.841l-0.034,-0.3l-0.116,-1.235l-0.028,-0.306l-11.766,1.213l0.76,7.731l1.372,-0.138l0.3,-0.031l-0.585,-5.891l10.097,-1.043Zm-155.153,-68.888l-2.856,1.841l-1.088,-4.997l3.944,3.156Zm-6.128,-5.278l0.041,0.216l2.571,12.39l1.641,-1.072l-0.597,-2.675l3.825,-2.478l2.128,1.697l1.641,-1.059l-10.034,-7.794l-1.216,0.775Zm-12.078,9.103l-0.46,0.453l-1.175,1.144l0.594,7.769l-4.084,-4.341l-1.313,1.275l8.188,8.716l1.309,-1.281l-2.303,-2.46l-0.206,-3.215l6.381,1.875l1.55,-1.513l-8.022,-2.275l-0.459,-6.147Zm1.881,-1.475l0.191,0.244l7.281,9.116l1.409,-1.172l-7.478,-9.357l-1.403,1.169Z" style="fill:#e42518;fill-rule:nonzero;"/><path d="M51.475,194.711l1.272,2.031c-1.094,0.744 -2.147,1.091 -3.169,1.038c-1.022,-0.056 -2.013,-0.494 -2.966,-1.306c-1.184,-1 -1.812,-2.235 -1.887,-3.688c-0.078,-1.456 0.478,-2.881 1.672,-4.284c1.256,-1.478 2.618,-2.306 4.081,-2.478c1.456,-0.169 2.815,0.275 4.062,1.337c1.088,0.925 1.7,2 1.835,3.219c0.081,0.725 -0.078,1.531 -0.485,2.416l-2.134,-1.091c0.284,-0.547 0.375,-1.1 0.266,-1.65c-0.11,-0.55 -0.397,-1.028 -0.879,-1.434c-0.656,-0.566 -1.393,-0.779 -2.206,-0.657c-0.819,0.128 -1.678,0.716 -2.572,1.778c-0.956,1.125 -1.437,2.104 -1.437,2.922c-0.003,0.822 0.325,1.51 0.969,2.06c0.475,0.406 1.018,0.603 1.625,0.59c0.596,-0.009 1.253,-0.278 1.953,-0.803" style="fill:#e42518;fill-rule:nonzero;"/><path d="M58.388,196.798l1.459,0.956c0.947,0.622 1.566,0.969 1.85,1.041c0.291,0.075 0.56,0.059 0.829,-0.053c0.256,-0.103 0.484,-0.306 0.678,-0.6c0.218,-0.331 0.303,-0.653 0.259,-0.966c-0.041,-0.322 -0.206,-0.612 -0.484,-0.875c-0.153,-0.125 -0.622,-0.453 -1.428,-0.978l-1.535,-1.003l-1.628,2.478Zm-5.669,4.347l6.403,-9.775l4.15,2.725c1.05,0.681 1.747,1.269 2.11,1.75c0.356,0.491 0.531,1.05 0.525,1.684c-0.013,0.641 -0.21,1.241 -0.591,1.819c-0.478,0.734 -1.09,1.2 -1.831,1.391c-0.747,0.197 -1.588,0.075 -2.522,-0.363c0.263,0.528 0.434,1.041 0.509,1.516c0.088,0.478 0.116,1.253 0.088,2.322l-0.056,2.687l-2.36,-1.547l-0.031,-3.059c-0.006,-1.091 -0.037,-1.803 -0.1,-2.119c-0.059,-0.322 -0.166,-0.587 -0.328,-0.794c-0.153,-0.215 -0.463,-0.465 -0.922,-0.765l-0.397,-0.256l-2.675,4.075l-1.972,-1.291Z" style="fill:#e42518;fill-rule:nonzero;"/><path d="M70.923,206.449l0.472,-4.603l-3.331,3.194l2.859,1.409Zm1.869,6.063l-2.306,-1.131l0.253,-2.835l-4.191,-2.056l-2.034,1.956l-2.25,-1.103l9.234,-8.481l2.244,1.1l-0.95,12.55Z" style="fill:#e42518;fill-rule:nonzero;"/><path d="M74.819,213.272l3.819,-11.034l2.162,0.744l1.975,8.94l2.55,-7.375l2.069,0.716l-3.812,11.044l-2.247,-0.772l-1.957,-8.744l-2.487,7.203l-2.072,-0.722Z" style="fill:#e42518;fill-rule:nonzero;"/><path d="M86.909,213.317l2.297,0.275c-0.034,0.775 0.119,1.393 0.453,1.837c0.335,0.444 0.857,0.744 1.553,0.897c0.747,0.159 1.338,0.119 1.785,-0.113c0.444,-0.228 0.712,-0.553 0.803,-0.978c0.059,-0.262 0.028,-0.512 -0.084,-0.737c-0.116,-0.225 -0.357,-0.447 -0.722,-0.675c-0.253,-0.156 -0.832,-0.453 -1.738,-0.903c-1.172,-0.572 -1.956,-1.144 -2.353,-1.697c-0.566,-0.778 -0.75,-1.622 -0.55,-2.525c0.125,-0.581 0.409,-1.091 0.853,-1.525c0.435,-0.435 0.994,-0.716 1.675,-0.844c0.678,-0.125 1.456,-0.1 2.335,0.091c1.434,0.315 2.437,0.862 3.028,1.65c0.584,0.787 0.784,1.709 0.59,2.765l-2.328,-0.406c0.031,-0.603 -0.087,-1.072 -0.359,-1.4c-0.269,-0.328 -0.722,-0.562 -1.375,-0.703c-0.669,-0.147 -1.225,-0.125 -1.666,0.069c-0.275,0.125 -0.456,0.334 -0.515,0.631c-0.063,0.262 0.003,0.525 0.187,0.762c0.238,0.31 0.894,0.719 1.953,1.229c1.069,0.512 1.835,0.959 2.31,1.365c0.478,0.397 0.806,0.878 1.006,1.431c0.197,0.56 0.219,1.194 0.062,1.919c-0.147,0.65 -0.459,1.228 -0.947,1.722c-0.49,0.484 -1.096,0.8 -1.818,0.934c-0.728,0.129 -1.588,0.088 -2.575,-0.128c-1.444,-0.315 -2.485,-0.887 -3.11,-1.725c-0.625,-0.834 -0.878,-1.906 -0.75,-3.218" style="fill:#e42518;fill-rule:nonzero;"/><path d="M102.687,214.585l-4.362,-0.572l-0.291,2.225l4.362,0.571l0.291,-2.224Z" style="fill:#e42518;"/><path d="M103.859,220.197l0.35,-11.678l3.532,0.103l1.875,8.028l2.34,-7.897l3.538,0.11l-0.357,11.672l-2.19,-0.069l0.278,-9.184l-2.594,9.118l-2.275,-0.075l-2.028,-9.256l-0.284,9.191l-2.185,-0.063Z" style="fill:#e42518;fill-rule:nonzero;"/><path d="M119.697,214.352c0.143,1.309 0.556,2.275 1.24,2.887c0.678,0.609 1.485,0.866 2.422,0.769c0.934,-0.103 1.663,-0.519 2.191,-1.263c0.528,-0.734 0.712,-1.778 0.572,-3.125c-0.147,-1.334 -0.55,-2.297 -1.2,-2.89c-0.657,-0.585 -1.469,-0.828 -2.438,-0.725c-0.966,0.106 -1.709,0.522 -2.231,1.247c-0.516,0.734 -0.706,1.762 -0.556,3.1m-2.407,0.343c-0.128,-1.187 -0.065,-2.197 0.203,-3.034c0.204,-0.625 0.507,-1.194 0.907,-1.713c0.409,-0.521 0.865,-0.928 1.387,-1.212c0.691,-0.384 1.51,-0.628 2.46,-0.734c1.712,-0.185 3.137,0.196 4.278,1.143c1.147,0.95 1.825,2.375 2.028,4.26c0.2,1.878 -0.147,3.406 -1.053,4.572c-0.907,1.165 -2.21,1.846 -3.916,2.031c-1.725,0.19 -3.153,-0.194 -4.297,-1.135c-1.128,-0.934 -1.794,-2.334 -1.997,-4.178" style="fill:#e42518;fill-rule:nonzero;"/><path d="M131.885,218.661l-2.759,-11.359l2.231,-0.541l6.488,6.453l-1.841,-7.578l2.131,-0.519l2.763,11.354l-2.3,0.556l-6.381,-6.288l1.803,7.403l-2.135,0.519Z" style="fill:#e42518;fill-rule:nonzero;"/><path d="M146.426,214.58l-3.359,-9.11l-3.254,1.194l-0.687,-1.85l8.716,-3.209l0.684,1.856l-3.247,1.197l3.356,9.103l-2.209,0.819Z" style="fill:#e42518;fill-rule:nonzero;"/><path d="M156.345,205.301l-3.347,-3.191l0.488,4.587l2.859,-1.396Zm5.937,2.246l-2.306,1.132l-2.087,-1.941l-4.197,2.053l0.3,2.813l-2.247,1.09l-1.034,-12.49l2.234,-1.103l9.337,8.446Z" style="fill:#e42518;fill-rule:nonzero;"/><path d="M164.039,206.477l-6.363,-9.8l1.928,-1.246l8.257,3.94l-4.244,-6.547l1.834,-1.193l6.363,9.8l-1.988,1.287l-8.1,-3.825l4.156,6.394l-1.843,1.19Z" style="fill:#e42518;fill-rule:nonzero;"/><path d="M176.247,191.936l-4.025,-2.278l1.588,4.325l2.437,-2.047Zm6.303,0.735l-1.962,1.656l-2.491,-1.375l-3.572,3.009l0.969,2.65l-1.912,1.616l-4.044,-11.869l1.909,-1.612l11.103,5.925Z" style="fill:#e42518;fill-rule:nonzero;"/></svg>