<?xml version="1.0" encoding="UTF-8" standalone="no"?><!DOCTYPE svg PUBLIC "-//W3C//DTD SVG 1.1//EN" "http://www.w3.org/Graphics/SVG/1.1/DTD/svg11.dtd"><svg width="100%" height="100%" viewBox="0 0 1075 492" version="1.1" xmlns="http://www.w3.org/2000/svg" xmlns:xlink="http://www.w3.org/1999/xlink" xml:space="preserve" xmlns:serif="http://www.serif.com/" style="fill-rule:evenodd;clip-rule:evenodd;stroke-linejoin:round;stroke-miterlimit:2;"><path d="M467.981,483.6c-0.809,-0.907 -1.216,-2.153 -1.216,-3.744l0,-42.519l29.057,0l-0,5.647l-23.435,0l0,14.828l21.66,0l-0,5.585l-21.66,-0l0,15.915l23.435,0l-0,5.647l-24.557,0c-1.381,0 -2.475,-0.453 -3.284,-1.359" style="fill:#231f20;fill-rule:nonzero;"/><path d="M503.87,481.56c-2.291,-2.628 -3.431,-6.169 -3.431,-10.613l5.5,0c-0,2.672 0.659,4.806 1.984,6.394c1.322,1.591 3.066,2.378 5.238,2.378l6.565,0c2.169,0 3.91,-0.528 5.21,-1.597c1.303,-1.062 1.953,-2.481 1.953,-4.25l-0,-3.678c-0,-1.403 -0.466,-2.584 -1.394,-3.534c-0.925,-0.953 -2.237,-1.588 -3.934,-1.907l-10.769,-2.037c-3.156,-0.591 -5.591,-1.841 -7.306,-3.744c-1.716,-1.903 -2.575,-4.287 -2.575,-7.144l-0,-3.743c-0,-3.4 1.134,-6.135 3.403,-8.197c2.265,-2.066 5.256,-3.097 8.962,-3.097l6.688,-0c2.328,-0 4.39,0.556 6.184,1.666c1.794,1.112 3.185,2.678 4.172,4.693c0.984,2.022 1.478,4.347 1.478,6.975l-5.559,0c-0,-2.265 -0.575,-4.09 -1.719,-5.478c-1.144,-1.378 -2.662,-2.072 -4.556,-2.072l-6.688,0c-2.009,0 -3.637,0.51 -4.878,1.528c-1.244,1.022 -1.865,2.416 -1.865,4.185l-0,3.062c-0,1.45 0.443,2.657 1.331,3.607c0.884,0.953 2.159,1.612 3.815,1.975l10.65,2.106c3.279,0.637 5.791,1.872 7.547,3.709c1.757,1.838 2.635,4.138 2.635,6.903l-0,4.422c-0,3.45 -1.157,6.219 -3.463,8.303c-2.309,2.085 -5.375,3.128 -9.203,3.128l-6.806,0c-3.825,0 -6.881,-1.315 -9.169,-3.943" style="fill:#231f20;fill-rule:nonzero;"/><path d="M540.617,481.56c-2.291,-2.628 -3.431,-6.169 -3.431,-10.613l5.5,0c-0,2.672 0.659,4.806 1.984,6.394c1.322,1.591 3.066,2.378 5.238,2.378l6.565,0c2.169,0 3.91,-0.528 5.21,-1.597c1.303,-1.062 1.953,-2.481 1.953,-4.25l-0,-3.678c-0,-1.403 -0.466,-2.584 -1.394,-3.534c-0.925,-0.953 -2.238,-1.588 -3.934,-1.907l-10.769,-2.037c-3.156,-0.591 -5.591,-1.841 -7.306,-3.744c-1.716,-1.903 -2.575,-4.287 -2.575,-7.144l-0,-3.743c-0,-3.4 1.134,-6.135 3.403,-8.197c2.265,-2.066 5.256,-3.097 8.962,-3.097l6.688,-0c2.328,-0 4.39,0.556 6.184,1.666c1.794,1.112 3.184,2.678 4.172,4.693c0.984,2.022 1.478,4.347 1.478,6.975l-5.559,0c-0,-2.265 -0.575,-4.09 -1.719,-5.478c-1.144,-1.378 -2.663,-2.072 -4.556,-2.072l-6.688,0c-2.009,0 -3.637,0.51 -4.878,1.528c-1.244,1.022 -1.866,2.416 -1.866,4.185l0,3.062c0,1.45 0.444,2.657 1.332,3.607c0.884,0.953 2.159,1.612 3.815,1.975l10.65,2.106c3.278,0.637 5.791,1.872 7.547,3.709c1.756,1.838 2.635,4.138 2.635,6.903l-0,4.422c-0,3.45 -1.157,6.219 -3.463,8.303c-2.309,2.085 -5.375,3.128 -9.203,3.128l-6.806,0c-3.825,0 -6.882,-1.315 -9.169,-3.943" style="fill:#231f20;fill-rule:nonzero;"/><path d="M595.823,483.328c-2.131,-1.45 -3.778,-3.503 -4.94,-6.16c-1.166,-2.65 -1.747,-5.725 -1.747,-9.215l-0,-13.606c-0,-3.494 0.593,-6.569 1.775,-9.219c1.184,-2.656 2.85,-4.71 5,-6.16c2.15,-1.45 4.647,-2.175 7.484,-2.175l6.272,0c2.684,0 5.062,0.666 7.131,2.007c2.072,1.334 3.669,3.206 4.797,5.612c1.122,2.406 1.684,5.169 1.684,8.297l-5.503,0c0,-3.037 -0.74,-5.484 -2.218,-7.347c-1.479,-1.856 -3.441,-2.787 -5.891,-2.787l-6.272,-0c-2.562,-0 -4.641,1.087 -6.241,3.265c-1.596,2.175 -2.396,5.057 -2.396,8.641l-0,13.337c-0,3.582 0.771,6.463 2.309,8.638c1.537,2.178 3.569,3.266 6.094,3.266l6.39,-0c2.522,-0 4.547,-1.032 6.066,-3.097c1.519,-2.063 2.275,-4.772 2.275,-8.125l5.506,-0c0,3.353 -0.575,6.325 -1.715,8.909c-1.144,2.584 -2.763,4.581 -4.854,5.988c-2.09,1.406 -4.518,2.106 -7.278,2.106l-6.39,-0c-2.763,-0 -5.207,-0.725 -7.338,-2.175" style="fill:#231f20;fill-rule:nonzero;"/><path d="M648.19,460.128c1.972,0 3.559,-0.612 4.763,-1.834c1.203,-1.225 1.803,-2.838 1.803,-4.832l-0,-4.968c-0,-1.632 -0.472,-2.95 -1.419,-3.947c-0.947,-0.997 -2.191,-1.5 -3.728,-1.5l-15.031,-0l-0,17.081l13.612,0Zm-19.234,-22.791l20.772,0c3.196,0 5.771,1.029 7.721,3.094c1.954,2.066 2.929,4.772 2.929,8.128l-0,4.903c-0,2.357 -0.641,4.441 -1.922,6.257c-1.285,1.815 -3.028,3.131 -5.238,3.947l0,0.065c2.328,1.591 4.063,4.494 5.206,8.71l3.254,12.518l-5.797,0l-3.194,-12.247c-0.553,-2.128 -1.431,-3.806 -2.634,-5.031c-1.204,-1.225 -2.575,-1.837 -4.113,-1.837l-11.362,-0l-0,19.115l-5.622,0l-0,-47.622Z" style="fill:#231f20;fill-rule:nonzero;"/><path d="M675.113,466.999l13.966,0l-6.922,-21.5l-0.063,0l-6.981,21.5Zm15.622,5.444l-17.281,-0l-4.019,12.515l-5.862,0l16.037,-47.621l2.547,-0c1.691,-0 2.897,1.065 3.609,3.196l14.853,44.425l-5.8,0l-4.084,-12.515Z" style="fill:#231f20;fill-rule:nonzero;"/><path d="M704.993,437.337l5.209,-0l21.891,37.215l-0,-37.215l5.506,-0l-0,47.621l-5.15,0l-21.953,-37.078l-0,37.078l-5.503,0l-0,-47.621Z" style="fill:#231f20;fill-rule:nonzero;"/><path d="M747.422,481.56c-2.291,-2.628 -3.431,-6.169 -3.431,-10.613l5.5,0c-0,2.672 0.659,4.806 1.984,6.394c1.322,1.591 3.066,2.378 5.238,2.378l6.565,0c2.169,0 3.91,-0.528 5.21,-1.597c1.303,-1.062 1.953,-2.481 1.953,-4.25l-0,-3.678c-0,-1.403 -0.466,-2.584 -1.394,-3.534c-0.925,-0.953 -2.238,-1.588 -3.934,-1.907l-10.769,-2.037c-3.156,-0.591 -5.591,-1.841 -7.306,-3.744c-1.716,-1.903 -2.575,-4.287 -2.575,-7.144l-0,-3.743c-0,-3.4 1.134,-6.135 3.403,-8.197c2.265,-2.066 5.256,-3.097 8.962,-3.097l6.688,-0c2.328,-0 4.39,0.556 6.184,1.666c1.794,1.112 3.184,2.678 4.172,4.693c0.984,2.022 1.478,4.347 1.478,6.975l-5.559,0c-0,-2.265 -0.575,-4.09 -1.719,-5.478c-1.144,-1.378 -2.663,-2.072 -4.556,-2.072l-6.688,0c-2.009,0 -3.637,0.51 -4.878,1.528c-1.244,1.022 -1.866,2.416 -1.866,4.185l0,3.062c0,1.45 0.444,2.657 1.332,3.607c0.884,0.953 2.159,1.612 3.815,1.975l10.65,2.106c3.278,0.637 5.791,1.872 7.547,3.709c1.756,1.838 2.635,4.138 2.635,6.903l-0,4.422c-0,3.45 -1.157,6.219 -3.463,8.303c-2.309,2.085 -5.375,3.128 -9.203,3.128l-6.806,0c-3.825,0 -6.882,-1.315 -9.169,-3.943" style="fill:#231f20;fill-rule:nonzero;"/><rect x="780.734" y="464.756" width="16.922" height="5.578" style="fill:#231f20;"/><path d="M804.047,437.337l5.209,-0l14.378,30.546l14.025,-30.546l5.206,-0l0,47.621l-5.503,0l0,-35.512l-10.887,23.403c-0.475,0.997 -0.919,1.703 -1.335,2.113c-0.412,0.406 -0.897,0.609 -1.447,0.609l-1.6,-0l-12.484,-26.125l0,35.512l-5.562,0l-0,-47.621Z" style="fill:#231f20;fill-rule:nonzero;"/><path d="M870.2,479.721c2.681,-0 4.853,-1.075 6.509,-3.232c1.657,-2.153 2.485,-5.022 2.485,-8.606l-0,-13.469c-0,-3.581 -0.828,-6.453 -2.485,-8.606c-1.656,-2.156 -3.828,-3.231 -6.509,-3.231l-6.094,-0c-2.684,-0 -4.853,1.075 -6.509,3.231c-1.656,2.153 -2.484,5.025 -2.484,8.606l-0,13.469c-0,3.584 0.818,6.453 2.453,8.606c1.637,2.157 3.797,3.232 6.478,3.232l6.156,-0Zm-13.816,3.606c-2.19,-1.45 -3.887,-3.491 -5.09,-6.122c-1.203,-2.628 -1.803,-5.694 -1.803,-9.188l-0,-13.74c-0,-3.494 0.6,-6.553 1.803,-9.185c1.203,-2.631 2.912,-4.675 5.119,-6.125c2.209,-1.45 4.753,-2.175 7.631,-2.175l6.275,0c2.878,0 5.415,0.725 7.603,2.175c2.191,1.45 3.887,3.494 5.091,6.125c1.2,2.632 1.803,5.691 1.803,9.185l-0,13.74c-0,3.494 -0.603,6.56 -1.803,9.188c-1.204,2.631 -2.913,4.672 -5.119,6.122c-2.213,1.45 -4.735,2.178 -7.575,2.178l-6.331,-0c-2.879,-0 -5.416,-0.728 -7.604,-2.178" style="fill:#231f20;fill-rule:nonzero;"/><path d="M891.441,437.337l5.209,-0l21.891,37.215l-0,-37.215l5.506,-0l-0,47.621l-5.15,0l-21.953,-37.078l-0,37.078l-5.503,0l-0,-47.621Z" style="fill:#231f20;fill-rule:nonzero;"/><path d="M942.036,442.983l-13.137,0l-0,-5.646l31.894,-0l-0,5.646l-13.135,0l0,41.975l-5.622,0l0,-41.975Z" style="fill:#231f20;fill-rule:nonzero;"/><path d="M967.836,466.999l13.965,0l-6.922,-21.5l-0.062,0l-6.981,21.5Zm15.622,5.444l-17.282,-0l-4.018,12.515l-5.863,0l16.038,-47.621l2.546,-0c1.691,-0 2.897,1.065 3.61,3.196l14.853,44.425l-5.8,0l-4.084,-12.515Z" style="fill:#231f20;fill-rule:nonzero;"/><path d="M997.715,437.337l5.209,-0l21.891,37.215l0,-37.215l5.506,-0l0,47.621l-5.15,0l-21.953,-37.078l0,37.078l-5.503,0l0,-47.621Z" style="fill:#231f20;fill-rule:nonzero;"/><path d="M1046.24,466.999l13.966,0l-6.922,-21.5l-0.062,0l-6.982,21.5Zm15.622,5.444l-17.281,-0l-4.019,12.515l-5.862,0l16.037,-47.621l2.547,-0c1.691,-0 2.897,1.065 3.61,3.196l14.853,44.425l-5.8,0l-4.085,-12.515Z" style="fill:#231f20;fill-rule:nonzero;"/><path d="M174.691,341.988c9.016,0 16.234,-3.943 21.669,-11.837c5.425,-7.891 8.143,-18.316 8.143,-31.275l0,-80.572c0,-12.956 -2.718,-23.378 -8.143,-31.275c-5.435,-7.891 -12.653,-11.837 -21.669,-11.837l-31.35,-0c-9.425,-0 -17.009,3.946 -22.744,11.837c-5.737,7.897 -8.606,18.319 -8.606,31.275l-0,80.572c-0,12.959 2.869,23.384 8.606,31.275c5.735,7.894 13.319,11.837 22.744,11.837l31.35,0Zm-70.075,32.335c-11.063,-7.181 -19.669,-17.372 -25.816,-30.566c-6.15,-13.19 -9.222,-28.387 -9.222,-45.587l0,-79.16c0,-17.193 3.022,-32.39 9.066,-45.587c6.044,-13.191 14.6,-23.378 25.666,-30.569c11.062,-7.181 23.865,-10.775 38.415,-10.775l32.582,0c14.137,0 26.631,3.594 37.493,10.775c10.857,7.191 19.313,17.378 25.357,30.569c6.043,13.197 9.065,28.394 9.065,45.587l0,79.16c0,17.2 -2.972,32.397 -8.909,45.587c-5.947,13.194 -14.347,23.385 -25.203,30.566c-10.866,7.19 -23.466,10.778 -37.803,10.778l-32.582,-0c-14.343,-0 -27.043,-3.588 -38.109,-10.778" style="fill:#91764f;fill-rule:nonzero;"/><path d="M658.891,134.905l39,0l106.534,168.213l0,-168.213l42.803,0l0,247.369l-38.996,-0l-106.538,-168.213l0,168.213l-42.803,-0l-0,-247.369Z" style="fill:#ee3124;fill-rule:nonzero;"/><path d="M908.849,363.368c-13.106,-14.49 -19.659,-34.687 -19.659,-60.606l43.122,-0c-0,12.253 2.8,21.856 8.403,28.8c5.597,6.953 13.365,10.425 23.303,10.425l35.194,-0c9.3,-0 16.856,-2.175 22.671,-6.538c5.813,-4.356 8.722,-10.184 8.722,-17.493l0,-12.013c0,-11.541 -7.612,-18.731 -22.831,-21.556l-58.341,-10.956c-19.021,-3.535 -33.45,-10.3 -43.281,-20.319c-9.825,-10.013 -14.744,-22.794 -14.744,-38.344l0,-19.787c0,-12.485 3.013,-23.5 9.041,-33.044c6.022,-9.541 14.584,-16.9 25.678,-22.084c11.097,-5.182 23.941,-7.776 38.525,-7.776l35.828,0c13.741,0 25.891,3.182 36.466,9.541c10.566,6.363 18.756,15.256 24.572,26.681c5.809,11.432 8.719,24.682 8.719,39.757l-43.122,-0c-0,-9.894 -2.432,-17.847 -7.294,-23.853c-4.863,-6.01 -11.309,-9.013 -19.341,-9.013l-35.828,0c-8.878,0 -16.009,2.122 -21.4,6.359c-5.39,4.244 -8.087,9.897 -8.087,16.966l-0,9.541c-0,11.781 7.293,19.081 21.878,21.909l58.022,11.309c19.234,3.772 33.928,10.425 44.072,19.963c10.15,9.544 15.225,21.856 15.225,36.931l-0,23.325c-0,12.488 -3.125,23.56 -9.36,33.216c-6.234,9.662 -14.953,17.14 -26.156,22.44c-11.203,5.303 -24.203,7.95 -39,7.95l-36.463,0c-23.253,0 -41.431,-7.24 -54.534,-21.731" style="fill:#ee3124;fill-rule:nonzero;"/><path d="M377.459,341.988l-31.35,0c-9.425,0 -17.01,-3.943 -22.744,-11.837c-5.737,-7.891 -8.606,-18.316 -8.606,-31.275l-0,-80.572c-0,-12.956 2.869,-23.378 8.606,-31.275c5.734,-7.891 13.319,-11.837 22.744,-11.837l31.35,-0c9.015,-0 16.234,3.946 21.669,11.837c5.425,7.897 8.143,18.319 8.143,31.275l0,80.572c0,0.312 -0.022,0.603 -0.025,0.912l38.488,-113.165c-1.313,-4.594 -2.891,-9.01 -4.81,-13.2c-6.043,-13.191 -14.5,-23.378 -25.356,-30.569c-10.862,-7.181 -23.356,-10.775 -37.494,-10.775l-32.581,0c-14.55,0 -27.353,3.594 -38.415,10.775c-11.066,7.191 -19.622,17.378 -25.666,30.569c-6.044,13.197 -9.066,28.394 -9.066,45.587l0,79.16c0,17.2 3.072,32.397 9.222,45.587c6.147,13.194 14.753,23.385 25.816,30.566c11.065,7.19 23.765,10.778 38.109,10.778l32.581,-0c0.054,-0 0.104,-0.006 0.157,-0.006l17.172,-50.485c-4.879,4.894 -10.847,7.378 -17.944,7.378" style="fill:#91764f;fill-rule:nonzero;"/><path d="M496.5,283.68l28.893,-89.056l0.307,-0l28.581,89.056l-57.781,0Zm55.631,-127.575c-4.716,-14.131 -13.728,-21.2 -27.047,-21.2l-19.056,0l-56.138,167.822l-19.6,58.603l-26.237,78.431l-17.328,51.803l42.159,0l56.244,-166.893l80.525,-0l18.75,57.603l44.256,-0l-76.528,-226.169Z" style="fill:#ee3124;fill-rule:nonzero;"/><rect x="0" y="132.037" width="42.691" height="252.847" style="fill:#91764f;"/><path d="M502.076,110.169c21.45,-67.981 -40.868,-98.819 -41.49,-99.147l-20.941,-11.022l17.103,16.353c24.272,23.2 29.8,46.775 30.935,58.76c1.312,13.821 -1.632,25.509 -3,30.012l-130.654,386.416l19.232,-0l127.575,-377.65l1.025,-2.972c0.043,-0.141 0.072,-0.272 0.115,-0.41l0.116,-0.334l-0.016,-0.006Z" style="fill:#ee3124;fill-rule:nonzero;"/><path d="M9.967,443.922l-9.529,5.51l0,-6.053l10.591,-6.466l4.559,0l0,47.625l-5.621,0l-0,-40.616Z" style="fill:#231f20;fill-rule:nonzero;"/><path d="M37.243,461.815c2.053,-0 3.884,-0.703 5.503,-2.109c1.615,-1.404 2.662,-3.219 3.137,-5.441l0,-4.219c0,-2.406 -0.672,-4.344 -2.012,-5.819c-1.341,-1.475 -3.097,-2.212 -5.266,-2.212l-4.141,-0c-2.365,-0 -4.284,0.797 -5.74,2.384c-1.46,1.585 -2.188,3.697 -2.188,6.325l0,2.722c0,2.541 0.597,4.572 1.803,6.091c1.204,1.522 2.791,2.278 4.763,2.278l4.141,-0Zm-11.982,19.766c-2.15,-2.338 -3.225,-5.432 -3.225,-9.288l5.563,0c-0,2.134 0.572,3.834 1.719,5.103c1.14,1.269 2.678,1.903 4.612,1.903l5.091,0c2.087,0 3.756,-0.815 5,-2.447c1.24,-1.631 1.862,-3.856 1.862,-6.668l0,-7.35c-1.106,1.456 -2.428,2.587 -3.965,3.403c-1.538,0.815 -3.135,1.225 -4.791,1.225l-3.969,-0c-2.444,-0 -4.594,-0.591 -6.45,-1.769c-1.85,-1.178 -3.281,-2.822 -4.284,-4.934c-1.01,-2.107 -1.51,-4.544 -1.51,-7.313l0,-2.722c0,-2.809 0.56,-5.306 1.685,-7.481c1.125,-2.181 2.712,-3.869 4.765,-5.072c2.05,-1.2 4.416,-1.803 7.1,-1.803l4.141,0c2.566,0 4.822,0.591 6.775,1.772c1.953,1.178 3.459,2.847 4.525,5c1.066,2.156 1.6,4.634 1.6,7.45l0,19.594c0,4.584 -1.125,8.209 -3.372,10.887c-2.25,2.675 -5.287,4.013 -9.112,4.013l-5.091,-0c-3.628,-0 -6.519,-1.166 -8.669,-3.503" style="fill:#231f20;fill-rule:nonzero;"/><path d="M55.883,479.3c0,-2.585 0.4,-4.832 1.213,-6.735c0.809,-1.903 2.137,-3.581 3.993,-5.034l14.675,-11.906c0.907,-0.725 1.607,-1.578 2.1,-2.553c0.494,-0.975 0.741,-1.985 0.741,-3.025l0,-2.182c0,-1.722 -0.512,-3.103 -1.541,-4.147c-1.025,-1.043 -2.403,-1.568 -4.14,-1.568l-5.444,-0c-1.894,-0 -3.403,0.762 -4.525,2.281c-1.128,1.522 -1.687,3.597 -1.687,6.225l-5.622,-0c-0,-4.4 1.053,-7.881 3.165,-10.444c2.11,-2.562 4.96,-3.844 8.55,-3.844l5.563,0c3.394,0 6.122,1.057 8.197,3.163c2.072,2.112 3.103,4.891 3.103,8.334l-0,2.182c-0,4.128 -1.653,7.481 -4.969,10.068l-14.259,11.294c-1.263,0.997 -2.16,2.041 -2.694,3.128c-0.531,1.091 -0.797,2.519 -0.797,4.288l23.197,-0l-0,5.712l-28.819,0l0,-5.237Z" style="fill:#231f20;fill-rule:nonzero;"/><path d="M105.822,479.436c2.25,-0 4.062,-0.816 5.443,-2.447c1.382,-1.635 2.072,-3.813 2.072,-6.531l0,-2.726c0,-2.399 -0.594,-4.328 -1.775,-5.781c-1.184,-1.45 -2.762,-2.175 -4.734,-2.175l-3.903,0c-2.213,0 -4.113,0.838 -5.713,2.516c-1.597,1.678 -2.612,3.765 -3.047,6.259l0,2.45c0,2.538 0.682,4.582 2.041,6.122c1.362,1.541 3.166,2.313 5.416,2.313l4.2,-0Zm-11.272,3.675c-1.994,-1.316 -3.541,-3.188 -4.647,-5.616c-1.103,-2.425 -1.656,-5.203 -1.656,-8.334l-0,-16.941c-0,-3.219 0.543,-6.019 1.628,-8.4c1.084,-2.381 2.612,-4.219 4.584,-5.513c1.972,-1.29 4.263,-1.94 6.866,-1.94l5.09,-0c3.391,-0 6.132,1.206 8.222,3.609c2.094,2.406 3.138,5.578 3.138,9.525l-5.503,0c-0,-2.222 -0.541,-4.003 -1.625,-5.344c-1.088,-1.337 -2.497,-2.006 -4.232,-2.006l-5.09,0c-2.288,0 -4.103,0.897 -5.444,2.688c-1.341,1.793 -2.009,4.253 -2.009,7.381l-0,7.419c1.021,-1.725 2.371,-3.072 4.05,-4.05c1.678,-0.975 3.384,-1.46 5.118,-1.46l3.847,0c3.669,0 6.6,1.257 8.788,3.775c2.187,2.516 3.284,5.816 3.284,9.897l0,2.657c0,2.9 -0.541,5.453 -1.628,7.653c-1.088,2.2 -2.625,3.912 -4.616,5.137c-1.99,1.222 -4.29,1.835 -6.893,1.835l-4.319,-0c-2.644,-0 -4.963,-0.657 -6.953,-1.972" style="fill:#231f20;fill-rule:nonzero;"/><path d="M198.96,479.3c-0,-2.585 0.4,-4.832 1.212,-6.735c0.81,-1.903 2.138,-3.581 3.994,-5.034l14.675,-11.906c0.906,-0.725 1.606,-1.578 2.1,-2.553c0.494,-0.975 0.741,-1.985 0.741,-3.025l-0,-2.182c-0,-1.722 -0.513,-3.103 -1.541,-4.147c-1.025,-1.043 -2.403,-1.568 -4.141,-1.568l-5.443,-0c-1.894,-0 -3.404,0.762 -4.525,2.281c-1.129,1.522 -1.688,3.597 -1.688,6.225l-5.622,-0c0,-4.4 1.053,-7.881 3.166,-10.444c2.109,-2.562 4.959,-3.844 8.55,-3.844l5.562,0c3.394,0 6.122,1.057 8.197,3.163c2.072,2.112 3.103,4.891 3.103,8.334l0,2.182c0,4.128 -1.653,7.481 -4.968,10.068l-14.26,11.294c-1.262,0.997 -2.159,2.041 -2.694,3.128c-0.531,1.091 -0.796,2.519 -0.796,4.288l23.196,-0l0,5.712l-28.818,0l-0,-5.237Z" style="fill:#231f20;fill-rule:nonzero;"/><path d="M250.258,479.3c2.131,-0 3.847,-0.907 5.147,-2.719c1.303,-1.816 1.953,-4.219 1.953,-7.216l-0,-17.281c-0,-2.991 -0.65,-5.397 -1.953,-7.209c-1.3,-1.813 -3.016,-2.725 -5.147,-2.725l-6.035,-0c-2.171,-0 -3.925,0.912 -5.265,2.725c-1.341,1.812 -2.013,4.218 -2.013,7.209l0,17.281c0,2.997 0.672,5.4 2.013,7.216c1.34,1.812 3.094,2.719 5.265,2.719l6.035,-0Zm-12.838,3.812c-1.934,-1.315 -3.434,-3.165 -4.497,-5.547c-1.065,-2.381 -1.6,-5.112 -1.6,-8.2l0,-17.281c0,-3.081 0.535,-5.816 1.6,-8.197c1.063,-2.381 2.563,-4.228 4.497,-5.544c1.932,-1.318 4.16,-1.975 6.685,-1.975l6.272,0c2.487,0 4.687,0.657 6.6,1.975c1.909,1.316 3.39,3.163 4.434,5.544c1.047,2.381 1.572,5.116 1.572,8.197l-0,17.281c-0,3.088 -0.525,5.819 -1.572,8.2c-1.044,2.382 -2.513,4.232 -4.406,5.547c-1.894,1.313 -4.103,1.972 -6.628,1.972l-6.272,0c-2.525,0 -4.753,-0.659 -6.685,-1.972" style="fill:#231f20;fill-rule:nonzero;"/><path d="M267.36,479.3c0,-2.585 0.403,-4.832 1.213,-6.735c0.809,-1.903 2.137,-3.581 3.994,-5.034l14.675,-11.906c0.906,-0.725 1.606,-1.578 2.1,-2.553c0.493,-0.975 0.74,-1.985 0.74,-3.025l0,-2.182c0,-1.722 -0.512,-3.103 -1.54,-4.147c-1.025,-1.043 -2.404,-1.568 -4.141,-1.568l-5.444,-0c-1.894,-0 -3.403,0.762 -4.525,2.281c-1.128,1.522 -1.687,3.597 -1.687,6.225l-5.622,-0c-0,-4.4 1.053,-7.881 3.165,-10.444c2.11,-2.562 4.96,-3.844 8.55,-3.844l5.563,0c3.394,0 6.122,1.057 8.197,3.163c2.072,2.112 3.103,4.891 3.103,8.334l-0,2.182c-0,4.128 -1.653,7.481 -4.969,10.068l-14.259,11.294c-1.263,0.997 -2.16,2.041 -2.694,3.128c-0.531,1.091 -0.797,2.519 -0.797,4.288l23.197,-0l0,5.712l-28.819,0l0,-5.237Z" style="fill:#231f20;fill-rule:nonzero;"/><path d="M317.302,479.436c2.25,-0 4.062,-0.816 5.444,-2.447c1.381,-1.635 2.072,-3.813 2.072,-6.531l-0,-2.726c-0,-2.399 -0.594,-4.328 -1.775,-5.781c-1.185,-1.45 -2.763,-2.175 -4.735,-2.175l-3.903,0c-2.212,0 -4.112,0.838 -5.712,2.516c-1.597,1.678 -2.613,3.765 -3.047,6.259l-0,2.45c-0,2.538 0.681,4.582 2.04,6.122c1.363,1.541 3.166,2.313 5.416,2.313l4.2,-0Zm-11.272,3.675c-1.994,-1.316 -3.541,-3.188 -4.647,-5.616c-1.103,-2.425 -1.656,-5.203 -1.656,-8.334l-0,-16.941c-0,-3.219 0.544,-6.019 1.628,-8.4c1.084,-2.381 2.613,-4.219 4.584,-5.513c1.972,-1.29 4.263,-1.94 6.866,-1.94l5.091,-0c3.39,-0 6.131,1.206 8.222,3.609c2.093,2.406 3.137,5.578 3.137,9.525l-5.503,0c-0,-2.222 -0.541,-4.003 -1.625,-5.344c-1.088,-1.337 -2.497,-2.006 -4.231,-2.006l-5.091,0c-2.287,0 -4.103,0.897 -5.444,2.688c-1.34,1.793 -2.009,4.253 -2.009,7.381l-0,7.419c1.022,-1.725 2.372,-3.072 4.05,-4.05c1.678,-0.975 3.384,-1.46 5.119,-1.46l3.847,0c3.668,0 6.6,1.257 8.787,3.775c2.188,2.516 3.284,5.816 3.284,9.897l0,2.657c0,2.9 -0.54,5.453 -1.628,7.653c-1.087,2.2 -2.625,3.912 -4.615,5.137c-1.991,1.222 -4.291,1.835 -6.894,1.835l-4.319,-0c-2.644,-0 -4.962,-0.657 -6.953,-1.972" style="fill:#231f20;fill-rule:nonzero;"/><path d="M170.902,479.445l-12.157,-9.203l0.31,-29l4.628,14.525l15.14,0.203l-12.171,8.953l4.25,14.522Zm14.325,-25.559l-19.972,-0.266l-6.166,-19.35l-6.362,19.332l-20.654,-0.275l16.679,12.018l-6.566,19.244l16.519,-11.725l16.068,12.163l-5.646,-19.297l16.1,-11.844Z" style="fill:#ee3124;fill-rule:nonzero;"/></svg>